<svg width="22" height="21" viewBox="0 0 22 21" fill="none" xmlns="http://www.w3.org/2000/svg">
<path d="M17.0118 5.84773C17.4044 5.45932 17.4061 4.82786 17.0156 4.43734C16.6251 4.04681 15.9902 4.0451 15.5976 4.43352L17.0118 5.84773ZM5.343 14.5782C4.95038 14.9666 4.94868 15.5981 5.3392 15.9886C5.72972 16.3791 6.36459 16.3808 6.75721 15.9924L5.343 14.5782ZM15.5976 4.43352L5.343 14.5782L6.75721 15.9924L17.0118 5.84773L15.5976 4.43352Z" fill="white"/>
<path d="M15.5625 16.0197C15.9531 16.4102 16.5879 16.4119 16.9805 16.0235C17.3732 15.6351 17.3749 15.0036 16.9843 14.6131L15.5625 16.0197ZM6.78456 4.41333C6.39403 4.02281 5.75917 4.0211 5.36654 4.40951C4.97392 4.79793 4.97222 5.42938 5.36275 5.81991L6.78456 4.41333ZM16.9843 14.6131L6.78456 4.41333L5.36275 5.81991L15.5625 16.0197L16.9843 14.6131Z" fill="white"/>
</svg>
