<svg width="188" height="83" viewBox="0 0 188 83" fill="none" xmlns="http://www.w3.org/2000/svg">
<path d="M133.758 41.6548C133.879 33.9504 136.251 27.297 141.065 21.5691C144.911 16.9918 149.702 13.8124 155.389 12.0076C157.046 11.4821 158.739 11.1258 160.46 10.8866C162.442 10.6112 164.431 10.5514 166.421 10.6735C169.983 10.8917 173.41 11.7086 176.691 13.1336C179.861 14.5106 182.712 16.3803 185.263 18.7157C185.471 18.9061 185.68 19.0973 185.863 19.3112C186.989 20.6343 186.473 22.6699 184.856 23.2813C184 23.6047 183.197 23.475 182.46 22.9386C182.29 22.8148 182.141 22.6623 181.985 22.5191C180.074 20.7547 177.956 19.2943 175.613 18.17C173.401 17.108 171.087 16.3727 168.663 15.9853C167.806 15.8489 166.948 15.7377 166.08 15.7057C165.541 15.6863 165.004 15.6308 164.466 15.6383C158.186 15.7251 152.611 17.7514 147.822 21.8521C143.861 25.2437 141.177 29.4791 139.745 34.5096C139.337 35.9388 139.079 37.3967 138.922 38.8756C138.772 40.2863 138.759 41.6986 138.837 43.1093C138.937 44.9007 139.236 46.6651 139.721 48.3933C141.031 53.0633 143.448 57.0604 146.975 60.3703C150.575 63.7492 154.806 65.9069 159.638 66.8679C161.763 67.2907 163.914 67.4347 166.073 67.2898C171.642 66.9176 176.603 64.9687 180.917 61.3927C181.369 61.0188 181.794 60.6112 182.233 60.2221C182.39 60.0823 182.545 59.9349 182.718 59.8161C184.061 58.888 186.063 59.4658 186.54 61.247C186.76 62.0724 186.581 62.8354 186.036 63.4991C185.932 63.6254 185.812 63.7399 185.693 63.8536C181.638 67.7151 176.894 70.2931 171.453 71.5716C170.127 71.8832 168.787 72.1131 167.433 72.2243C165.94 72.3473 164.443 72.4525 162.942 72.3136C162.289 72.2529 161.634 72.2302 160.981 72.1561C158.074 71.8243 155.276 71.0823 152.584 69.9386C148.69 68.2836 145.271 65.9246 142.352 62.854C138.287 58.5781 135.631 53.5434 134.422 47.7473C134.124 46.3164 133.918 44.8729 133.853 43.41C133.822 42.7506 133.781 42.0928 133.758 41.6548Z" fill="#2734FF"/>
<path d="M123.199 41.3695C123.155 40.2047 123.246 38.9111 123.368 37.6225C123.99 31.0887 126.008 25.0257 129.481 19.4587C130.98 17.0559 132.717 14.8401 134.662 12.7885C134.856 12.5838 135.05 12.3783 135.262 12.1939C136.531 11.088 138.737 11.5218 139.283 13.4016C139.512 14.1941 139.379 14.9437 138.879 15.609C138.738 15.796 138.571 15.9636 138.409 16.1328C137.205 17.3903 136.085 18.7184 135.069 20.1333C132.034 24.3553 129.982 29.0135 128.944 34.1189C128.686 35.3881 128.502 36.6683 128.371 37.9577C128.221 39.4375 128.195 40.9197 128.231 42.4029C128.407 49.8193 130.65 56.5502 134.899 62.6082C135.926 64.0736 137.068 65.4455 138.302 66.74C138.464 66.9093 138.629 67.0811 138.758 67.2757C139.751 68.763 138.952 70.5341 137.594 71.0209C136.694 71.3427 135.838 71.2273 135.086 70.5981C134.907 70.4482 134.747 70.2739 134.585 70.1038C132.275 67.6757 130.288 65.0034 128.625 62.0894C126.487 58.3424 124.976 54.3529 124.087 50.1275C123.805 48.791 123.591 47.4443 123.449 46.0841C123.288 44.5597 123.18 43.0345 123.199 41.3695Z" fill="#2734FF"/>
<path d="M163.631 61.696C159.362 61.4913 155.515 60.1042 152.148 57.4547C148.46 54.5524 146.048 50.8004 144.919 46.2247C144.528 44.6397 144.366 43.0277 144.375 41.3947C144.4 36.7777 145.827 32.6408 148.661 29.0219C151.718 25.1157 155.696 22.6599 160.544 21.6509C161.809 21.3881 163.089 21.2534 164.382 21.25C164.665 21.2492 164.94 21.2812 165.213 21.3603C166.169 21.6391 167.04 22.526 167.002 23.8651C166.969 25.0273 166.141 25.9739 165.021 26.2165C164.697 26.2864 164.371 26.2982 164.042 26.3024C162.817 26.315 161.617 26.5087 160.439 26.8414C154.972 28.3869 150.83 32.8413 149.675 38.4276C149.421 39.6538 149.306 40.8969 149.372 42.1493C149.54 45.3185 150.545 48.1921 152.477 50.7086C154.737 53.653 157.685 55.5387 161.302 56.3514C162.264 56.5678 163.241 56.6756 164.227 56.7043C164.368 56.7085 164.509 56.7059 164.649 56.7144C165.98 56.7927 167.034 57.8968 167.005 59.2309C166.97 60.8016 165.751 61.6505 164.753 61.6935C164.381 61.7095 164.005 61.696 163.631 61.696Z" fill="#2734FF"/>
<path d="M164.51 48.8603C160.433 48.9083 157.141 45.4898 157.156 41.4565C157.171 37.5125 160.399 34.0974 164.504 34.1016C168.666 34.1066 171.875 37.5437 171.86 41.5189C171.845 45.5092 168.571 48.9041 164.51 48.8603Z" fill="#2734FF"/>
<path d="M166.1 82.9842C165.689 82.9884 165.128 82.9951 164.565 83.001C164.135 83.0052 163.729 82.9008 163.349 82.7037C162.434 82.2287 161.89 81.2012 162.029 80.1771C162.195 78.9635 163.064 78.2384 163.922 78.0548C164.172 78.0009 164.43 77.9781 164.687 77.9587C164.92 77.9411 165.155 77.9486 165.389 77.9453C168.951 77.888 172.419 77.2715 175.803 76.1665C178.622 75.246 181.286 73.9886 183.797 72.4053C183.996 72.2806 184.194 72.1534 184.401 72.0448C185.092 71.6818 186.348 71.6363 187.211 72.4676C188.385 73.597 188.185 75.3614 187.056 76.2575C186.854 76.4175 186.632 76.5523 186.415 76.6895C183.625 78.4481 180.666 79.8453 177.541 80.8905C175.27 81.651 172.948 82.2009 170.581 82.553C169.494 82.7147 168.402 82.8528 167.3 82.8949C166.951 82.9075 166.6 82.9463 166.1 82.9842Z" fill="#2734FF"/>
<path d="M165.672 0.000631653C171.069 0.179179 176.068 1.29847 180.859 3.36187C182.476 4.05837 184.04 4.86099 185.554 5.76215C185.795 5.90616 186.042 6.04765 186.261 6.22283C187.048 6.85533 187.338 7.69753 187.161 8.67533C186.993 9.60596 186.431 10.2452 185.54 10.5534C184.895 10.7758 184.245 10.7438 183.625 10.4414C183.373 10.3185 183.134 10.1669 182.891 10.0237C180.457 8.58521 177.888 7.45413 175.19 6.61867C173.216 6.00723 171.203 5.56844 169.154 5.3082C167.713 5.1246 166.265 5.0109 164.81 5.00416C164.67 5.00332 164.529 5.00416 164.389 4.99743C163.187 4.9351 162.217 4.04995 162.035 2.85318C161.858 1.68588 162.565 0.525324 163.694 0.126962C163.963 0.0317932 164.242 0.00568487 164.524 0.00315826C164.968 -0.00189496 165.413 0.000631653 165.672 0.000631653Z" fill="#2734FF"/>
<path d="M152.595 5.71744C152.64 7.67725 151.038 9.40713 148.971 9.42819C146.833 9.45009 145.283 7.68988 145.251 5.80671C145.219 4.00524 146.609 2.06059 148.917 2.0547C151.198 2.04964 152.62 3.9345 152.595 5.71744Z" fill="#2734FF"/>
<path d="M148.942 80.6183C146.962 80.6688 145.269 78.9844 145.25 76.9715C145.231 74.9317 146.937 73.2321 148.942 73.2422C150.927 73.2523 152.599 74.9334 152.601 76.9361C152.602 78.9524 150.909 80.6536 148.942 80.6183Z" fill="#2734FF"/>
<path d="M1.70605 58.8512C1.61557 58.5623 1.65662 58.2793 1.7027 58.0022C1.86272 57.0488 2.26317 56.2117 2.91916 55.5C3.48466 54.8878 4.15739 54.4237 4.89212 54.0455C5.10073 53.9386 5.3152 53.8426 5.52297 53.7339C6.32221 53.3154 7.0117 52.7561 7.60653 52.079C7.68276 51.9931 7.73973 51.8895 7.81681 51.7783C7.75816 51.7244 7.71376 51.6478 7.66601 51.6453C7.38619 51.6301 7.1047 51.6259 6.82404 51.6301C6.2577 51.6385 5.70142 51.5594 5.15519 51.4221C4.25625 51.1964 3.44444 50.7887 2.71725 50.2102C2.2372 49.8278 1.80994 49.3941 1.42959 48.9123C0.508029 47.745 0.0539532 46.4076 0.00536204 44.9278C-0.0306624 43.8591 0.115111 42.8097 0.434305 41.7923C1.04169 39.8595 2.10065 38.2189 3.65808 36.9193C5.23729 35.6013 7.0427 34.7372 9.03494 34.2656C10.362 33.9514 11.7091 33.7863 13.073 33.7788C13.28 33.7779 13.4953 33.7442 13.6469 33.8478C13.7583 33.9472 13.7768 34.0407 13.7801 34.1342C13.7893 34.3927 13.7952 34.6521 13.7952 34.9107C13.796 37.9494 13.796 40.9872 13.796 44.0259C13.796 44.2617 13.7918 44.4975 13.8027 44.7325C13.8681 46.2299 15.1105 47.2448 16.3563 47.2355C16.6143 47.2338 16.8715 47.238 17.1296 47.238C18.8403 47.238 20.5502 47.238 22.2609 47.2372C22.4721 47.2372 22.6832 47.2422 22.8935 47.2245C24.2281 47.1159 25.0968 46.0219 25.1823 45.0887C25.2124 44.7611 25.2384 44.4318 25.2393 44.1025C25.2451 42.4063 25.2418 40.7109 25.2418 39.0147C25.2418 37.5779 25.2409 36.1411 25.2426 34.7043C25.2426 34.4921 25.2434 34.2799 25.2585 34.0693C25.2652 33.9817 25.3113 33.8967 25.3431 33.7981C25.4479 33.7754 25.5375 33.7367 25.6263 33.7383C27.3178 33.7745 28.9917 33.9421 30.6278 34.4062C32.3419 34.893 33.8977 35.6855 35.28 36.8166C37.232 38.4134 38.4259 40.465 38.88 42.9478C38.9729 43.4557 38.9914 43.977 39.0408 44.4924C39.0517 44.6095 39.0509 44.7274 39.0542 44.8453C39.0819 45.9191 40.0084 47.1967 41.4863 47.2245C43.1258 47.2557 44.7662 47.2456 46.4066 47.2271C47.2309 47.2178 47.8878 46.8354 48.3862 46.1785C48.6945 45.7726 48.8478 45.3085 48.883 44.804C48.899 44.5699 48.8939 44.3333 48.8939 44.0974C48.8948 42.1663 48.8948 40.2351 48.8956 38.3031C48.8956 37.8786 48.9241 37.46 49.0204 37.0415C49.3145 35.7756 50.4447 34.3119 52.1344 33.879C52.4042 33.8099 52.6891 33.7956 52.9672 33.7636C53.0644 33.7527 53.1482 33.7998 53.2177 33.8798C53.2973 34.1013 53.268 34.3388 53.2688 34.5721C53.2722 35.8203 53.2705 37.0684 53.2705 38.3174C53.2705 40.2486 53.2705 42.1797 53.2705 44.1118C53.2705 44.3476 53.2655 44.5834 53.2789 44.8184C53.3526 46.0909 54.3554 47.1193 55.623 47.2245C55.7629 47.2363 55.9036 47.2346 56.0444 47.2355C57.0983 47.2363 58.1531 47.2363 59.207 47.2355C59.4885 47.2355 59.7675 47.2254 60.0431 47.1513C61.1272 46.8616 61.8962 45.9334 61.9691 44.8083C61.9842 44.5733 61.9783 44.3375 61.9783 44.1016C61.9792 42.1705 61.9809 40.2393 61.9783 38.3073C61.9775 37.8584 61.9976 37.412 62.1275 36.9783C62.5866 35.4446 63.5743 34.4273 65.0823 33.9169C65.3965 33.8108 65.7215 33.7754 66.05 33.7585C66.148 33.7535 66.2326 33.788 66.3046 33.8722C66.3867 34.1156 66.3516 34.3767 66.3524 34.6328C66.3557 36.329 66.3541 38.0243 66.3541 39.7205C66.3541 41.3695 66.349 43.0177 66.3549 44.6668C66.3566 45.2833 66.2837 45.8888 66.1329 46.4842C65.8062 47.7779 65.1175 48.8559 64.1557 49.7613C62.8697 50.9723 61.3467 51.6107 59.579 51.6259C58.2905 51.6368 57.0019 51.6343 55.7134 51.6259C54.161 51.6149 52.7695 51.1307 51.548 50.1613C51.4022 50.0451 51.2489 49.939 51.0889 49.8202C50.9959 49.8699 50.9096 49.9053 50.8367 49.9592C50.7044 50.056 50.5821 50.1672 50.4514 50.2666C49.2927 51.1475 47.9858 51.6107 46.5339 51.6242C44.8475 51.6394 43.1602 51.6411 41.4729 51.6259C39.923 51.6116 38.5281 51.1298 37.31 50.1529C37.1667 50.0383 37.0461 49.8817 36.8366 49.8463C36.6305 49.8985 36.494 50.0703 36.3289 50.1975C35.6143 50.7475 34.8377 51.1787 33.9588 51.3926C31.7345 51.9325 29.6828 51.588 27.8523 50.1537C27.7417 50.067 27.6303 49.9819 27.5172 49.8977C27.4987 49.8842 27.4744 49.8783 27.4208 49.8556C27.3597 49.8842 27.27 49.912 27.198 49.9642C27.0463 50.0737 26.9064 50.2017 26.7565 50.3137C25.6322 51.1576 24.3613 51.5796 22.9638 51.6259C22.7066 51.6343 22.4486 51.6309 22.1906 51.6309C20.3399 51.6309 18.4884 51.62 16.6378 51.6352C15.5931 51.6436 14.5844 51.4954 13.6193 51.0827C13.5137 51.0372 13.404 50.9892 13.2808 51.0212C13.1576 51.1046 13.1199 51.2435 13.0638 51.3724C12.8745 51.8028 12.7002 52.2415 12.4866 52.6601C10.9752 55.6137 8.20051 57.8262 5.00606 58.6255C4.0711 58.8587 3.12274 59.0019 2.1551 58.9809C2.01771 58.9766 1.87277 58.9893 1.70605 58.8512ZM9.11788 38.7958C6.80561 39.4283 5.30264 40.94 4.52937 43.2199C4.34589 43.7606 4.30233 44.324 4.32914 44.8942C4.34757 45.2799 4.46151 45.6361 4.6676 45.9587C5.1711 46.7462 5.88573 47.1925 6.8232 47.2136C7.71292 47.2338 8.60348 47.2153 9.4932 47.2094C9.55855 47.2085 9.62306 47.169 9.67081 47.1529C9.74286 47.0502 9.73281 46.9576 9.70181 46.8683C9.40524 46.0092 9.35246 45.1207 9.35916 44.2204C9.36921 42.7373 9.36251 41.2533 9.36167 39.7694C9.36167 39.5571 9.36167 39.3457 9.35162 39.1335C9.34659 39.0425 9.31476 38.9533 9.298 38.8766C9.23349 38.8488 9.19244 38.8295 9.11788 38.7958ZM29.7423 38.8564C29.7163 38.9019 29.6602 38.9575 29.6543 39.0173C29.6342 39.227 29.625 39.4392 29.6242 39.6498C29.6217 41.2019 29.6225 42.7541 29.6233 44.3063C29.6233 44.4705 29.6217 44.6356 29.6292 44.7998C29.682 45.8762 30.2391 46.6266 31.1967 47.0308C32.9611 47.777 34.4573 46.3588 34.6081 45.1199C34.6751 44.5716 34.6458 44.0317 34.5017 43.5113C33.8675 41.2146 32.4542 39.6447 30.1721 38.9095C30.0414 38.8674 29.9074 38.8109 29.7423 38.8564Z" fill="#2734FF"/>
<path d="M87.7 36.5967C88.0025 36.6573 88.2605 36.6354 88.5169 36.6354C92.4058 36.6371 96.2956 36.6362 100.185 36.6371C100.536 36.6371 100.888 36.632 101.239 36.6421C102.381 36.675 103.47 36.9352 104.468 37.5003C106.352 38.5683 107.634 40.1305 108.174 42.2554C108.523 43.6307 108.478 45.0094 108.082 46.373C107.95 46.8261 107.768 47.2615 107.539 47.6733C106.837 48.9349 105.867 49.938 104.63 50.6724C103.621 51.2712 102.52 51.5626 101.354 51.6216C101.214 51.6283 101.073 51.6292 100.933 51.6292C93.3182 51.6292 85.7036 51.6292 78.089 51.63C77.5956 51.63 77.1047 51.6098 76.6229 51.4927C76.3272 51.4211 76.0289 51.3554 75.7416 51.2569C73.3472 50.4332 71.4966 48.1643 71.1598 45.647C71.1321 45.4373 71.1229 45.225 71.1171 45.0128C71.1087 44.7071 71.1095 44.4005 71.1095 44.094C71.1095 38.4175 71.1095 32.7411 71.1095 27.0654C71.1095 26.7589 71.1078 26.4532 71.1162 26.1466C71.1715 24.2137 72.6259 22.5706 74.3333 22.1411C74.6039 22.0729 74.8879 22.0594 75.1669 22.0291C75.2607 22.019 75.3512 22.0518 75.4442 22.1663C75.4534 22.2421 75.476 22.3567 75.4794 22.4712C75.4861 22.7298 75.4836 22.9892 75.4836 23.2486C75.4836 30.1496 75.4836 37.0506 75.4836 43.9516C75.4836 44.2346 75.4769 44.5176 75.4911 44.7997C75.5556 46.0765 76.5509 47.1124 77.8159 47.2219C78.0019 47.2379 78.1904 47.2345 78.3781 47.2345C85.805 47.2354 93.2319 47.2345 100.66 47.2354C101.036 47.2354 101.406 47.216 101.774 47.1183C102.974 46.7991 104.057 45.5981 104.021 44.0552C103.988 42.6799 103.046 41.4461 101.698 41.1302C101.446 41.0713 101.193 41.03 100.934 41.0309C100.676 41.0325 100.419 41.03 100.161 41.03C93.9758 41.03 87.7905 41.03 81.6052 41.03C81.3472 41.03 81.09 41.0309 80.8319 41.0216C80.7415 41.0182 80.6518 40.9871 80.5421 40.9643C80.5127 40.8464 80.4616 40.7353 80.4608 40.6232C80.4541 39.8459 80.4407 39.0685 80.4641 38.292C80.496 37.2249 80.9333 36.3356 81.7166 35.6189C81.942 35.4134 82.1791 35.2205 82.4153 35.0276C86.9678 31.3236 91.5212 27.6196 96.0762 23.9173C96.2931 23.7413 96.4934 23.5383 96.7346 23.433C96.9215 23.4591 96.991 23.5871 97.0672 23.7025C98.2175 25.4459 97.9503 27.5657 96.6777 28.9966C96.4138 29.2931 96.1113 29.5609 95.8039 29.8127C94.2967 31.0482 92.7828 32.2745 91.2706 33.5041C90.2326 34.3488 89.1938 35.1919 88.1566 36.0374C88.0117 36.1562 87.8718 36.2817 87.7369 36.4122C87.7126 36.4392 87.7185 36.4998 87.7 36.5967Z" fill="#2734FF"/>
<path d="M59.6787 31.7277C58.4547 31.7799 57.1394 30.7751 57.1251 29.1901C57.1117 27.7095 58.3407 26.6273 59.656 26.6096C60.8884 26.5927 62.2448 27.5487 62.2339 29.2019C62.2238 30.7558 60.9529 31.7782 59.6787 31.7277Z" fill="#2734FF"/>
<path d="M49.5274 31.7289C48.1576 31.7735 46.9755 30.5978 46.9688 29.1939C46.9621 27.7655 48.1459 26.6024 49.5684 26.6134C50.8536 26.6226 52.0826 27.6905 52.0725 29.2015C52.0625 30.6854 50.841 31.7836 49.5274 31.7289Z" fill="#2734FF"/>
<path d="M43.7793 31.728C42.5519 31.7735 41.2433 30.7309 41.25 29.1568C41.2567 27.7495 42.4187 26.6049 43.8228 26.6133C45.2136 26.6217 46.3697 27.7966 46.358 29.1997C46.3471 30.5936 45.1725 31.7802 43.7793 31.728Z" fill="#2734FF"/>
<path d="M50.7954 55.481C50.818 55.5501 50.8675 55.6208 50.8541 55.6755C50.6765 56.3939 50.3003 56.9658 49.6267 57.3077C49.4809 57.3819 49.3285 57.445 49.1777 57.5082C46.733 58.5247 44.2892 59.5404 41.8438 60.5544C41.6729 60.6252 41.4961 60.6833 41.3034 60.7549C41.2707 60.6723 41.2146 60.6041 41.2288 60.557C41.4601 59.8023 41.9049 59.2212 42.6237 58.8759C42.8139 58.785 43.0091 58.7058 43.2035 58.6233C45.4881 57.6505 47.7727 56.6778 50.0582 55.7059C50.2308 55.6326 50.4025 55.5576 50.5793 55.4945C50.6404 55.4717 50.7133 55.4844 50.7954 55.481Z" fill="#2734FF"/>
</svg>
