<svg width="15" height="18" viewBox="0 0 15 18" fill="none" xmlns="http://www.w3.org/2000/svg">
<path d="M1.2192 4.22393L0.471237 4.16872L1.2192 4.22393ZM2.11287 3.30249L2.20098 4.04729L2.11287 3.30249ZM13.587 4.22393L12.8391 4.27915L13.587 4.22393ZM13.587 15.8638L14.335 15.919L13.587 15.8638ZM2.11439 16.7715L2.04948 17.5187L2.11439 16.7715ZM12.6269 16.0243C9.03059 16.3368 5.77563 16.3368 2.17931 16.0243L2.04948 17.5187C5.73219 17.8387 9.07403 17.8387 12.7567 17.5187L12.6269 16.0243ZM14.335 15.919C14.63 11.9232 14.63 8.16456 14.335 4.16872L12.8391 4.27915C13.1286 8.20147 13.1286 11.8862 12.8391 15.8086L14.335 15.919ZM0.471237 4.16872C0.176254 8.16455 0.176254 11.9232 0.471238 15.919L1.96717 15.8086C1.67761 11.8862 1.67761 8.20147 1.96717 4.27915L0.471237 4.16872ZM11.0175 3.84978C11.5447 3.91508 12.0829 3.9855 12.6052 4.04729L12.7815 2.55768C12.2629 2.49633 11.7448 2.4284 11.2019 2.36116L11.0175 3.84978ZM2.20098 4.04729C2.72328 3.9855 3.26149 3.91508 3.78871 3.84978L3.60434 2.36116C3.06141 2.4284 2.54332 2.49633 2.02475 2.55768L2.20098 4.04729ZM1.96717 4.27915C1.97536 4.16813 2.06603 4.06326 2.20098 4.04729L2.02475 2.55768C1.20094 2.65514 0.53412 3.3169 0.471237 4.16872L1.96717 4.27915ZM14.335 4.16872C14.2721 3.3169 13.6053 2.65514 12.7815 2.55768L12.6052 4.04729C12.7402 4.06326 12.8309 4.16813 12.8391 4.27915L14.335 4.16872ZM12.7567 17.5187C13.6052 17.445 14.2724 16.7665 14.335 15.919L12.8391 15.8086C12.8305 15.9239 12.7403 16.0145 12.6269 16.0243L12.7567 17.5187ZM2.17931 16.0243C2.06589 16.0145 1.97568 15.9239 1.96717 15.8086L0.471238 15.919C0.533803 16.7665 1.20107 17.445 2.04948 17.5187L2.17931 16.0243Z" fill="#A5A5A5"/>
<path d="M4.92188 7.71484C4.50766 7.71484 4.17188 8.05063 4.17188 8.46484C4.17188 8.87906 4.50766 9.21484 4.92188 9.21484V7.71484ZM9.89754 9.21484C10.3118 9.21484 10.6475 8.87906 10.6475 8.46484C10.6475 8.05063 10.3118 7.71484 9.89754 7.71484V9.21484ZM4.92188 9.21484H9.89754V7.71484H4.92188V9.21484Z" fill="#A5A5A5"/>
<path d="M4.92188 11.4805C4.50766 11.4805 4.17188 11.8163 4.17188 12.2305C4.17188 12.6447 4.50766 12.9805 4.92188 12.9805V11.4805ZM7.92443 12.9805C8.33864 12.9805 8.67443 12.6447 8.67443 12.2305C8.67443 11.8163 8.33864 11.4805 7.92443 11.4805V12.9805ZM4.92188 12.9805H7.92443V11.4805H4.92188V12.9805Z" fill="#A5A5A5"/>
<rect x="3.71094" y="1" width="7.38193" height="3.84487" rx="1.92244" stroke="#A5A5A5" stroke-width="1.5" stroke-linejoin="round"/>
</svg>
