<svg width="33" height="28" viewBox="0 0 33 28" fill="none" xmlns="http://www.w3.org/2000/svg">
<path fill-rule="evenodd" clip-rule="evenodd" d="M32.0626 14.3168C32.0626 13.324 31.96 12.3695 31.7694 11.4531H16.5781V16.8686H25.2588C24.8849 18.6186 23.7485 20.1013 22.0402 21.094V24.6068H27.253C30.303 22.1695 32.0626 18.5804 32.0626 14.3168Z" fill="#4285F4"/>
<path fill-rule="evenodd" clip-rule="evenodd" d="M16.5781 28.0002C20.9331 28.0002 24.5843 26.7465 27.2531 24.6083L22.0402 21.0956C20.5959 21.9356 18.7483 22.432 16.5781 22.432C12.3771 22.432 8.82122 19.9692 7.55284 16.6602H2.16406V20.2874C4.81813 24.8629 10.2729 28.0002 16.5781 28.0002Z" fill="#34A853"/>
<path fill-rule="evenodd" clip-rule="evenodd" d="M7.5497 16.6582C7.22711 15.8182 7.04382 14.9209 7.04382 13.9982C7.04382 13.0755 7.22711 12.1782 7.5497 11.3382V7.71094H2.16092C1.0685 9.60094 0.445312 11.7391 0.445312 13.9982C0.445312 16.2573 1.0685 18.3955 2.16092 20.2855L7.5497 16.6582Z" fill="#FBBC05"/>
<path fill-rule="evenodd" clip-rule="evenodd" d="M16.5781 5.56818C18.9463 5.56818 21.0725 6.27455 22.7441 7.66182L27.3704 3.64637C24.577 1.38727 20.9258 0 16.5781 0C10.2729 0 4.81813 3.13727 2.16406 7.71273L7.55284 11.34C8.82122 8.03091 12.3771 5.56818 16.5781 5.56818Z" fill="#EA4335"/>
</svg>
