<svg width="18" height="18" viewBox="0 0 18 18" fill="none" xmlns="http://www.w3.org/2000/svg">
<path d="M12.8765 18H5.12233C2.29775 18 0 15.7022 0 12.8765V5.12233C0 2.29775 2.29775 0 5.12347 0H12.8777C15.7022 0 18.0011 2.29775 18.0011 5.12347V12.8777C18 15.7022 15.7011 18 12.8765 18ZM5.12347 1.54286C3.14957 1.54286 1.54286 3.14843 1.54286 5.12347V12.8777C1.54286 14.8516 3.14843 16.4583 5.12347 16.4583H12.8777C14.8516 16.4583 16.4583 14.8527 16.4583 12.8777V5.12347C16.4583 3.14957 14.8527 1.54286 12.8777 1.54286H5.12347Z" fill="#A5A5A5"/>
<path d="M8.99981 13.609C6.45803 13.609 4.39062 11.5416 4.39062 8.99981C4.39062 6.45803 6.45803 4.39062 8.99981 4.39062C11.5416 4.39062 13.609 6.45803 13.609 8.99981C13.609 11.5416 11.5416 13.609 8.99981 13.609ZM8.99981 5.93462C7.30871 5.93462 5.93348 7.30985 5.93348 9.00095C5.93348 10.6921 7.30871 12.0673 8.99981 12.0673C10.6909 12.0673 12.0661 10.6921 12.0661 9.00095C12.0661 7.30985 10.6909 5.93462 8.99981 5.93462Z" fill="#A5A5A5"/>
<path d="M14.9176 4.12679C14.9176 4.73914 14.4216 5.23404 13.8104 5.23404C13.198 5.23404 12.7031 4.738 12.7031 4.12679C12.7031 3.51443 13.1992 3.01953 13.8104 3.01953C14.4216 3.01839 14.9176 3.51443 14.9176 4.12679Z" fill="#A5A5A5"/>
</svg>
