<svg width="30" height="39" viewBox="0 0 30 39" fill="none" xmlns="http://www.w3.org/2000/svg">
<path d="M4.73438 19.5692C4.78873 16.118 5.84987 13.1376 8.00365 10.5718C9.7245 8.52133 11.8682 7.09714 14.4125 6.28865C15.1536 6.05324 15.9111 5.89365 16.6814 5.78651C17.5678 5.66314 18.4581 5.63635 19.3483 5.69106C20.9417 5.78877 22.4751 6.15472 23.943 6.79306C25.3613 7.40989 26.6369 8.24743 27.7782 9.29359C27.8712 9.37886 27.9649 9.4645 28.0466 9.56032C28.5504 10.153 28.3195 11.0649 27.5961 11.3388C27.2134 11.4836 26.8539 11.4255 26.5244 11.1852C26.4483 11.1298 26.3816 11.0615 26.3119 10.9973C25.4565 10.207 24.5093 9.55278 23.4609 9.04912C22.471 8.57339 21.4357 8.24403 20.3513 8.07049C19.9679 8.00937 19.5841 7.95957 19.1957 7.94524C18.9547 7.93656 18.7141 7.91166 18.4734 7.91506C15.6637 7.95391 13.1696 8.86162 11.0267 10.6985C9.25484 12.2178 8.05388 14.1151 7.41292 16.3685C7.23075 17.0087 7.11493 17.6618 7.04483 18.3243C6.97774 18.9562 6.97174 19.5889 7.00698 20.2208C7.05158 21.0232 7.18539 21.8136 7.40242 22.5878C7.98866 24.6797 9.06967 26.4702 10.6477 27.9529C12.2587 29.4665 14.1516 30.4331 16.3133 30.8635C17.2642 31.0529 18.2264 31.1174 19.1924 31.0525C21.6842 30.8858 23.9036 30.0128 25.834 28.4109C26.036 28.2434 26.2261 28.0608 26.4225 27.8865C26.4929 27.8239 26.5623 27.7579 26.6395 27.7047C27.2407 27.2889 28.1362 27.5477 28.3495 28.3456C28.4481 28.7154 28.3682 29.0572 28.1242 29.3545C28.0777 29.411 28.0241 29.4624 27.9709 29.5133C26.1563 31.2431 24.0341 32.3979 21.5995 32.9706C21.0065 33.1102 20.4068 33.2132 19.8011 33.263C19.1331 33.318 18.4633 33.3652 17.7916 33.3029C17.4996 33.2758 17.2065 33.2656 16.9145 33.2324C15.6138 33.0838 14.3619 32.7514 13.1572 32.239C11.415 31.4977 9.8853 30.441 8.57939 29.0655C6.76071 27.1501 5.57249 24.8948 5.03161 22.2984C4.89817 21.6574 4.80597 21.0108 4.77711 20.3555C4.76324 20.0601 4.74487 19.7654 4.73438 19.5692Z" fill="#2734FF"/>
<path d="M0.00510186 19.4397C-0.0147642 18.9179 0.0260931 18.3385 0.0808185 17.7612C0.358943 14.8344 1.26191 12.1184 2.81596 9.6247C3.48653 8.54835 4.26356 7.55576 5.13391 6.63673C5.2205 6.54506 5.30746 6.45301 5.40229 6.37038C5.97016 5.87503 6.95709 6.06932 7.20111 6.91139C7.30381 7.2664 7.24422 7.60216 7.02044 7.90021C6.95747 7.98396 6.88287 8.05904 6.81016 8.13487C6.27153 8.69813 5.77038 9.29308 5.31571 9.92689C3.95807 11.8181 3.04011 13.9048 2.57569 16.1918C2.46024 16.7604 2.37778 17.3338 2.31931 17.9114C2.25221 18.5743 2.24059 19.2382 2.25634 19.9026C2.33505 23.2248 3.33885 26.24 5.23999 28.9537C5.69954 29.6101 6.21043 30.2247 6.76256 30.8045C6.8349 30.8804 6.90874 30.9573 6.96646 31.0445C7.41064 31.7107 7.05342 32.5041 6.44545 32.7222C6.04288 32.8663 5.6598 32.8146 5.32358 32.5328C5.24337 32.4657 5.17177 32.3876 5.09943 32.3113C4.06565 31.2237 3.17692 30.0266 2.43288 28.7213C1.47631 27.0428 0.800118 25.2557 0.402422 23.3629C0.276479 22.7642 0.180522 22.1609 0.116801 21.5517C0.0448332 20.8688 -0.00351925 20.1856 0.00510186 19.4397Z" fill="#2734FF"/>
<path d="M18.0997 28.5476C16.1895 28.4559 14.4687 27.8346 12.9622 26.6477C11.3122 25.3476 10.2327 23.6669 9.72781 21.6172C9.55276 20.9072 9.48042 20.1851 9.48454 19.4536C9.49541 17.3854 10.1341 15.5322 11.4018 13.9111C12.7696 12.1614 14.5496 11.0612 16.7188 10.6093C17.2844 10.4916 17.8571 10.4312 18.4355 10.4297C18.5622 10.4293 18.6855 10.4437 18.8077 10.4791C19.235 10.604 19.6248 11.0013 19.608 11.6011C19.5934 12.1217 19.2227 12.5458 18.7215 12.6544C18.5768 12.6858 18.4306 12.691 18.2837 12.6929C17.7353 12.6986 17.1986 12.7854 16.6716 12.9344C14.2254 13.6267 12.3726 15.622 11.8557 18.1245C11.7421 18.6738 11.6904 19.2306 11.72 19.7916C11.7954 21.2113 12.2448 22.4985 13.1092 23.6258C14.1205 24.9447 15.4395 25.7894 17.0576 26.1535C17.4883 26.2504 17.9254 26.2987 18.3665 26.3116C18.4295 26.3134 18.4925 26.3123 18.5551 26.3161C19.1507 26.3512 19.6222 26.8458 19.6091 27.4434C19.5937 28.147 19.0484 28.5273 18.6016 28.5465C18.4351 28.5537 18.2672 28.5476 18.0997 28.5476Z" fill="#2734FF"/>
<path d="M18.4934 22.7987C16.6691 22.8203 15.1964 21.2889 15.2031 19.4822C15.2099 17.7154 16.6541 16.1856 18.4904 16.1875C20.3526 16.1898 21.7886 17.7294 21.7818 19.5101C21.7751 21.2976 20.3102 22.8184 18.4934 22.7987Z" fill="#2734FF"/>
<path d="M19.206 38.0817C19.0219 38.0836 18.7708 38.0866 18.5193 38.0893C18.3266 38.0911 18.1452 38.0444 17.975 37.9561C17.5657 37.7433 17.3224 37.283 17.3847 36.8243C17.4589 36.2806 17.8476 35.9558 18.2314 35.8736C18.3435 35.8494 18.4589 35.8392 18.5736 35.8305C18.6778 35.8226 18.7832 35.826 18.8877 35.8245C20.4815 35.7989 22.0329 35.5227 23.5473 35.0277C24.8086 34.6154 26.0002 34.0521 27.1239 33.3428C27.2127 33.287 27.3012 33.23 27.3938 33.1814C27.703 33.0188 28.2653 32.9984 28.6513 33.3708C29.1765 33.8767 29.0869 34.6671 28.5816 35.0685C28.4917 35.1401 28.3923 35.2005 28.2949 35.262C27.0467 36.0497 25.7228 36.6756 24.3247 37.1438C23.3085 37.4845 22.2698 37.7308 21.2109 37.8885C20.7244 37.961 20.2356 38.0229 19.7427 38.0417C19.5864 38.0474 19.4297 38.0647 19.206 38.0817Z" fill="#2734FF"/>
<path d="M19.0142 0.910439C21.4289 0.99042 23.6655 1.49181 25.8092 2.41612C26.5326 2.72812 27.2324 3.08765 27.9097 3.49133C28.0177 3.55584 28.1282 3.61923 28.2261 3.6977C28.5784 3.98103 28.7081 4.35829 28.629 4.7963C28.5537 5.21318 28.3022 5.49953 27.9033 5.63761C27.6151 5.73721 27.3242 5.72287 27.0469 5.58743C26.934 5.53235 26.8272 5.46444 26.7185 5.40031C25.6292 4.75593 24.48 4.24926 23.2731 3.87501C22.3896 3.60112 21.4889 3.40456 20.5724 3.28798C19.9277 3.20574 19.2796 3.15481 18.6289 3.15179C18.5659 3.15141 18.503 3.15179 18.4404 3.14877C17.9025 3.12085 17.4684 2.72435 17.3871 2.18825C17.308 1.66535 17.6243 1.14548 18.1292 0.967029C18.2499 0.924398 18.3748 0.912703 18.5007 0.911571C18.6994 0.909307 18.8984 0.910439 19.0142 0.910439Z" fill="#2734FF"/>
<path d="M13.161 3.46887C13.1813 4.34677 12.4646 5.12168 11.5399 5.13111C10.5833 5.14092 9.88986 4.35243 9.87524 3.50886C9.861 2.70188 10.4832 1.83077 11.5159 1.82813C12.5362 1.82587 13.1723 2.67019 13.161 3.46887Z" fill="#2734FF"/>
<path d="M11.527 37.0229C10.6409 37.0455 9.88332 36.291 9.87507 35.3893C9.86645 34.4756 10.6296 33.7142 11.527 33.7188C12.4149 33.7233 13.1631 34.4763 13.1638 35.3735C13.1642 36.2767 12.4071 37.0387 11.527 37.0229Z" fill="#2734FF"/>
</svg>
