<svg width="32" height="32" viewBox="0 0 32 32" fill="none" xmlns="http://www.w3.org/2000/svg">
<path d="M27.2664 27.2662H22.5249V19.8407C22.5249 18.07 22.4933 15.7906 20.0588 15.7906C17.5892 15.7906 17.2114 17.7198 17.2114 19.7118V27.2657H12.4698V11.9959H17.0217V14.0826H17.0854C17.541 13.3038 18.1992 12.663 18.9901 12.2287C19.781 11.7943 20.6749 11.5826 21.5766 11.616C26.3823 11.616 27.2684 14.7771 27.2684 18.8894L27.2664 27.2662ZM7.11975 9.90858C6.57554 9.90868 6.04352 9.7474 5.59097 9.44513C5.13842 9.14287 4.78566 8.71319 4.57731 8.21044C4.36896 7.70769 4.31437 7.15445 4.42045 6.62067C4.52652 6.0869 4.78849 5.59657 5.17324 5.21168C5.55799 4.8268 6.04823 4.56464 6.58196 4.45838C7.1157 4.35211 7.66897 4.4065 8.17179 4.61467C8.67461 4.82284 9.10441 5.17545 9.40684 5.62789C9.70927 6.08033 9.87075 6.61229 9.87084 7.1565C9.87091 7.51785 9.79981 7.87567 9.66158 8.20953C9.52337 8.54339 9.32074 8.84676 9.06527 9.10231C8.80981 9.35787 8.50652 9.5606 8.1727 9.69894C7.83889 9.83728 7.4811 9.90852 7.11975 9.90858ZM9.49053 27.2662H4.74403V11.9959H9.49053V27.2662ZM29.6303 0.00217941H2.3614C1.74247 -0.00480518 1.14608 0.234217 0.703299 0.666722C0.260514 1.09923 0.00755367 1.68983 0 2.30875V29.6908C0.00729514 30.31 0.2601 30.901 0.70287 31.334C1.14564 31.7669 1.74217 32.0064 2.3614 31.9998H29.6303C30.2508 32.0076 30.849 31.7688 31.2935 31.3358C31.738 30.9029 31.9925 30.3112 32.0011 29.6908V2.30678C31.9922 1.68663 31.7376 1.09535 31.293 0.662859C30.8485 0.230364 30.2505 -0.00797524 29.6303 0.000203762" fill="#0955B6"/>
</svg>
