<svg width="19" height="18" viewBox="0 0 19 18" fill="none" xmlns="http://www.w3.org/2000/svg">
<path d="M17.366 13.88L16.6206 13.7968L17.366 13.88ZM4.80722 16.6371L4.72111 17.3821L4.80722 16.6371ZM9.71094 16.25C8.08232 16.25 6.48244 16.0757 4.89333 15.892L4.72111 17.3821C6.30635 17.5653 7.98537 17.75 9.71094 17.75V16.25ZM14.5285 15.892C12.9394 16.0757 11.3396 16.25 9.71094 16.25V17.75C11.4365 17.75 13.1155 17.5653 14.7008 17.3821L14.5285 15.892ZM18.1114 13.9631C18.2876 12.3838 18.4609 10.715 18.4609 9H16.9609C16.9609 10.6227 16.7969 12.217 16.6206 13.7968L18.1114 13.9631ZM18.4609 9C18.4609 7.28496 18.2876 5.61621 18.1114 4.03688L16.6206 4.2032C16.7969 5.78304 16.9609 7.37727 16.9609 9H18.4609ZM9.71094 1.75C11.3396 1.75 12.9394 1.9243 14.5285 2.10796L14.7008 0.617881C13.1155 0.434665 11.4365 0.25 9.71094 0.25V1.75ZM4.89333 2.10796C6.48244 1.9243 8.08232 1.75 9.71094 1.75V0.25C7.98537 0.25 6.30635 0.434665 4.72111 0.617881L4.89333 2.10796ZM1.31052 4.03688C1.13432 5.61621 0.960938 7.28496 0.960938 9H2.46094C2.46094 7.37727 2.62501 5.78303 2.80127 4.2032L1.31052 4.03688ZM0.960938 9C0.960938 10.715 1.13432 12.3838 1.31052 13.9631L2.80127 13.7968C2.62501 12.217 2.46094 10.6227 2.46094 9H0.960938ZM18.1114 4.03688C17.9118 2.24802 16.4855 0.824154 14.7008 0.617881L14.5285 2.10796C15.6224 2.23438 16.4989 3.11219 16.6206 4.2032L18.1114 4.03688ZM14.7008 17.3821C16.4855 17.1758 17.9118 15.752 18.1114 13.9631L16.6206 13.7968C16.4989 14.8878 15.6224 15.7656 14.5285 15.892L14.7008 17.3821ZM4.72111 0.617881C2.93638 0.824154 1.5101 2.24802 1.31052 4.03688L2.80127 4.2032C2.92299 3.11219 3.79948 2.23438 4.89333 2.10796L4.72111 0.617881ZM4.89333 15.892C3.79949 15.7656 2.92299 14.8878 2.80127 13.7968L1.31052 13.9631C1.5101 15.752 2.93638 17.1758 4.72111 17.3821L4.89333 15.892Z" fill="white"/>
<path d="M10.4688 5.80078C10.4688 5.38657 10.133 5.05078 9.71875 5.05078C9.30454 5.05078 8.96875 5.38657 8.96875 5.80078L10.4688 5.80078ZM8.96875 12.2008C8.96875 12.615 9.30454 12.9508 9.71875 12.9508C10.133 12.9508 10.4687 12.615 10.4687 12.2008L8.96875 12.2008ZM8.96875 5.80078L8.96875 12.2008L10.4687 12.2008L10.4688 5.80078L8.96875 5.80078Z" fill="white"/>
<path d="M12.9141 9.75C13.3283 9.75 13.6641 9.41421 13.6641 9C13.6641 8.58579 13.3283 8.25 12.9141 8.25L12.9141 9.75ZM6.51406 8.25C6.09985 8.25 5.76406 8.58579 5.76406 9C5.76406 9.41421 6.09985 9.75 6.51406 9.75L6.51406 8.25ZM12.9141 8.25L6.51406 8.25L6.51406 9.75L12.9141 9.75L12.9141 8.25Z" fill="white"/>
</svg>
