<svg width="64" height="64" viewBox="0 0 64 64" fill="none" xmlns="http://www.w3.org/2000/svg">
<path d="M27.5751 1.86731L21.7134 0.331651C19.1741 -0.342419 16.471 0.0197583 14.1987 1.33852C11.9264 2.65728 10.2711 4.82462 9.59666 7.36382L8.11719 12.9165C12.9584 6.88876 19.9182 2.93662 27.5751 1.86731Z" fill="#A5A5A5"/>
<path d="M1.77367 36.8203L0.331652 42.2513C-0.342418 44.7906 0.0197546 47.4936 1.33852 49.7659C2.65728 52.0382 4.82463 53.6936 7.36383 54.368L12.9821 55.8662C6.98506 51.1518 2.98336 44.352 1.77367 36.8203Z" fill="#A5A5A5"/>
<path d="M56.608 9.59017L50.2969 7.91406C53.4812 10.3635 56.1473 13.421 58.1405 16.9091C60.1337 20.3972 61.4143 24.2464 61.9079 28.2334L63.6402 21.6788C64.3058 19.1434 63.9395 16.4476 62.6214 14.1818C61.3033 11.916 59.141 10.2649 56.608 9.59017Z" fill="#A5A5A5"/>
<path d="M36.2188 62.0382L42.2584 63.6674C44.7977 64.3415 47.5007 63.9793 49.773 62.6606C52.0453 61.3418 53.7007 59.1745 54.3751 56.6353L56.0793 50.2305C51.2743 56.6303 44.1365 60.874 36.2188 62.0382Z" fill="#A5A5A5"/>
<path d="M31.987 4.24609C26.4996 4.24609 21.1354 5.8733 16.5728 8.92193C12.0102 11.9706 8.45408 16.3037 6.35414 21.3734C4.2542 26.4431 3.70477 32.0217 4.77531 37.4036C5.84585 42.7856 8.48827 47.7292 12.3685 51.6094C16.2486 55.4896 21.1923 58.132 26.5742 59.2025C31.9562 60.2731 37.5347 59.7236 42.6044 57.6237C47.6741 55.5238 52.0073 51.9677 55.0559 47.405C58.1046 42.8424 59.7318 37.4783 59.7318 31.9909C59.7318 24.6325 56.8087 17.5755 51.6055 12.3724C46.4023 7.1692 39.3454 4.24609 31.987 4.24609ZM16.2746 18.0857C16.5713 16.5475 17.3173 15.1318 18.4185 14.0175C19.5197 12.9033 20.9265 12.1405 22.4611 11.8257C23.9957 11.5109 25.5892 11.6582 27.0401 12.2489C28.491 12.8396 29.7342 13.8473 30.6125 15.1444C31.4909 16.4416 31.9648 17.9701 31.9746 19.5366C31.9843 21.1032 31.5294 22.6374 30.6672 23.9454C29.8051 25.2534 28.5745 26.2764 27.1311 26.8851C25.6876 27.4938 24.0961 27.6609 22.5577 27.3652C21.5357 27.1687 20.5624 26.7728 19.6935 26.2001C18.8245 25.6274 18.077 24.889 17.4935 24.0273C16.91 23.1655 16.502 22.1973 16.2929 21.1778C16.0837 20.1583 16.0775 19.1076 16.2746 18.0857ZM27.8014 42.0569C27.503 43.5943 26.7557 45.0088 25.6537 46.1216C24.5518 47.2344 23.1447 47.9957 21.6103 48.3091C20.0759 48.6226 18.483 48.4742 17.0329 47.8828C15.5828 47.2913 14.3406 46.2833 13.4631 44.9861C12.5857 43.6889 12.1124 42.1607 12.1032 40.5946C12.0939 39.0286 12.549 37.4949 13.411 36.1874C14.273 34.8799 15.5033 33.8572 16.9463 33.2486C18.3893 32.64 19.9803 32.4728 21.5183 32.7681C22.5413 32.9645 23.5154 33.3607 24.3851 33.934C25.2547 34.5074 26.0028 35.2466 26.5864 36.1094C27.17 36.9722 27.5777 37.9416 27.7862 38.9621C27.9947 39.9827 27.9998 41.0343 27.8014 42.0569ZM31.163 35.6427C30.4802 35.5106 29.8518 35.1793 29.3571 34.6906C28.8625 34.2018 28.5236 33.5775 28.3833 32.8963C28.243 32.2152 28.3076 31.5078 28.5688 30.8633C28.8301 30.2188 29.2764 29.6662 29.8514 29.275C30.4264 28.8839 31.1043 28.6717 31.7997 28.6654C32.4951 28.6591 33.1768 28.8589 33.7588 29.2395C34.3408 29.6202 34.797 30.1647 35.07 30.8043C35.3429 31.4439 35.4203 32.15 35.2924 32.8336C35.207 33.2899 35.0323 33.7247 34.7782 34.1132C34.5241 34.5016 34.1958 34.836 33.812 35.0971C33.4282 35.3582 32.9966 35.5408 32.542 35.6344C32.0873 35.7281 31.6187 35.7309 31.163 35.6427ZM47.69 45.8773C47.3933 47.4155 46.6472 48.8312 45.5461 49.9455C44.4449 51.0597 43.0381 51.8225 41.5035 52.1373C39.9689 52.4521 38.3754 52.3048 36.9245 51.7141C35.4736 51.1234 34.2304 50.1158 33.3521 48.8186C32.4737 47.5214 31.9997 45.9929 31.99 44.4264C31.9803 42.8599 32.4352 41.3256 33.2973 40.0176C34.1595 38.7096 35.39 37.6866 36.8335 37.0779C38.277 36.4692 39.8685 36.3021 41.4069 36.5978C42.4289 36.7943 43.4022 37.1902 44.2711 37.7629C45.1401 38.3356 45.8876 39.074 46.4711 39.9357C47.0546 40.7975 47.4626 41.7658 47.6717 42.7852C47.8808 43.8047 47.8871 44.8554 47.69 45.8773ZM42.4463 31.195C40.9081 30.8983 39.4923 30.1522 38.3781 29.0511C37.2638 27.9499 36.5011 26.5431 36.1863 25.0085C35.8715 23.4739 36.0188 21.8804 36.6095 20.4295C37.2002 18.9785 38.2078 17.7353 39.505 16.857C40.8022 15.9787 42.3307 15.5047 43.8972 15.495C45.4637 15.4853 46.998 15.9402 48.306 16.8023C49.614 17.6644 50.637 18.895 51.2457 20.3385C51.8544 21.7819 52.0215 23.3735 51.7257 24.9119C51.5304 25.9347 51.1353 26.909 50.563 27.779C49.9907 28.649 49.2525 29.3976 48.3907 29.9821C47.5288 30.5665 46.5602 30.9753 45.5402 31.185C44.5202 31.3947 43.4688 31.4013 42.4463 31.2043V31.195Z" fill="#A5A5A5"/>
</svg>
