<svg width="54" height="64" viewBox="0 0 54 64" fill="none" xmlns="http://www.w3.org/2000/svg">
<g clip-path="url(#clip0_165_1799)">
<path d="M26.6702 0C11.9371 0 0 11.9371 0 26.6702C0 41.4033 11.9371 53.3404 26.6702 53.3404V64.006L45.1995 45.8443C50.213 40.9935 53.3343 34.1964 53.3343 26.6702C53.3343 11.9371 41.3972 0 26.6702 0ZM26.6702 42.6687C17.8364 42.6687 10.6717 35.504 10.6717 26.6702C10.6717 22.1508 12.5457 18.0774 15.5526 15.1669L26.6702 4.26626V10.6657C35.504 10.6657 42.6687 17.8303 42.6687 26.6642C42.6687 35.504 35.504 42.6687 26.6702 42.6687Z" fill="#A5A5A5"/>
</g>
<defs>
<clipPath id="clip0_165_1799">
<rect width="53.3343" height="64" fill="white"/>
</clipPath>
</defs>
</svg>
