<svg width="18" height="18" viewBox="0 0 18 18" fill="none" xmlns="http://www.w3.org/2000/svg">
<path d="M5.78125 1L5.78125 4.25014" stroke="#A5A5A5" stroke-width="1.5" stroke-linecap="round"/>
<path d="M11.5234 1L11.5234 4.25014" stroke="#A5A5A5" stroke-width="1.5" stroke-linecap="round"/>
<path d="M13.3648 2.53666L13.4074 1.78787L13.3648 2.53666ZM13.3648 16.8691L13.3222 16.1203L13.3648 16.8691ZM8.65921 16.2495C6.99489 16.2495 5.48688 16.2051 3.99622 16.1203L3.91105 17.6179C5.43063 17.7043 6.96704 17.7495 8.65921 17.7495V16.2495ZM13.3222 16.1203C11.8315 16.2051 10.3235 16.2495 8.65921 16.2495V17.7495C10.3514 17.7495 11.8878 17.7043 13.4074 17.6179L13.3222 16.1203ZM16.8859 14.295C17.0587 12.8341 17.2247 11.2901 17.2247 9.70289H15.7247C15.7247 11.1939 15.5687 12.661 15.3963 14.1189L16.8859 14.295ZM17.2247 9.70289C17.2247 8.11567 17.0587 6.57169 16.8859 5.11075L15.3963 5.28691C15.5687 6.74476 15.7247 8.21192 15.7247 9.70289H17.2247ZM8.65921 3.15625C10.3235 3.15625 11.8315 3.20067 13.3222 3.28545L13.4074 1.78787C11.8878 1.70145 10.3514 1.65625 8.65921 1.65625V3.15625ZM3.99622 3.28545C5.48688 3.20067 6.99489 3.15625 8.65921 3.15625V1.65625C6.96704 1.65625 5.43063 1.70145 3.91105 1.78787L3.99622 3.28545ZM0.432494 5.11075C0.259723 6.57169 0.09375 8.11567 0.09375 9.70289H1.59375C1.59375 8.21192 1.74971 6.74476 1.92211 5.28691L0.432494 5.11075ZM0.09375 9.70289C0.09375 11.2901 0.259723 12.8341 0.432495 14.295L1.92211 14.1189C1.74971 12.661 1.59375 11.1939 1.59375 9.70289H0.09375ZM16.8859 5.11075C16.6751 3.3283 15.234 1.89175 13.4074 1.78787L13.3222 3.28545C14.3877 3.34605 15.2669 4.19261 15.3963 5.28691L16.8859 5.11075ZM13.4074 17.6179C15.234 17.514 16.6751 16.0775 16.8859 14.295L15.3963 14.1189C15.2669 15.2132 14.3877 16.0597 13.3222 16.1203L13.4074 17.6179ZM3.91105 1.78787C2.0844 1.89175 0.643287 3.3283 0.432494 5.11075L1.92211 5.28691C2.05153 4.19261 2.93074 3.34605 3.99622 3.28545L3.91105 1.78787ZM3.99622 16.1203C2.93074 16.0597 2.05153 15.2132 1.92211 14.1189L0.432495 14.295C0.643287 16.0775 2.0844 17.514 3.91105 17.6179L3.99622 16.1203Z" fill="#A5A5A5"/>
<path d="M1.21094 8.01172H16.1709" stroke="#A5A5A5" stroke-width="1.5"/>
</svg>
