<svg width="29" height="24" viewBox="0 0 29 24" fill="none" xmlns="http://www.w3.org/2000/svg">
<path d="M8.72634 5.10807C9.93618 4.38339 11.3199 4.00044 12.7302 4C13.9035 3.99931 15.0619 4.26346 16.119 4.77277C17.176 5.28208 18.1045 6.02341 18.8351 6.9415C19.5658 7.85959 20.0798 8.93076 20.3389 10.0752C20.5979 11.2195 20.5953 12.4077 20.3313 13.5509C20.0672 14.6942 19.5486 15.7631 18.8139 16.678C18.0792 17.5929 17.1476 18.3301 16.0883 18.8348C15.029 19.3395 13.8695 19.5986 12.6962 19.5928C11.7169 19.588 10.749 19.3987 9.84279 19.0367L5.35171 19.7845C4.97974 19.8465 4.67569 19.49 4.79549 19.1325L5.9596 15.6579C5.35237 14.5928 5.00359 13.3972 4.945 12.1675C4.87788 10.7588 5.19411 9.35834 5.86 8.11518C6.52589 6.87202 7.51651 5.83275 8.72634 5.10807Z" stroke="#A5A5A5" stroke-width="1.5" stroke-linecap="round" stroke-linejoin="round"/>
</svg>
