<svg width="57" height="61" viewBox="0 0 57 61" fill="none" xmlns="http://www.w3.org/2000/svg">
<path d="M41.9459 1H13.4648C12.6817 1 12.0469 1.63482 12.0469 2.41797V57.7187C12.0469 58.5019 12.6817 59.1367 13.4648 59.1367H54.5859C55.3691 59.1367 56.0039 58.5019 56.0039 57.7187V15.058C56.0039 14.682 55.8545 14.3213 55.5886 14.0554L42.9485 1.41532C42.6826 1.14938 42.3219 1 41.9459 1Z" fill="white" stroke="#979593" stroke-width="2" stroke-miterlimit="10"/>
<path d="M41.8203 1V13.7617C41.8203 14.5449 42.4551 15.1797 43.2383 15.1797H56" stroke="#979593" stroke-width="2" stroke-miterlimit="10"/>
<path d="M50.3301 39.2812H28.3516V37.8633H50.3301C50.7216 37.8633 51.0391 38.1807 51.0391 38.5723C51.0391 38.9638 50.7216 39.2812 50.3301 39.2812ZM50.3301 35.0273H28.3516V33.6094H50.3301C50.7216 33.6094 51.0391 33.9268 51.0391 34.3184C51.0391 34.7099 50.7216 35.0273 50.3301 35.0273ZM50.3301 30.7734H28.3516V29.3555H50.3301C50.7216 29.3555 51.0391 29.6729 51.0391 30.0645C51.0391 30.456 50.7216 30.7734 50.3301 30.7734ZM50.3301 26.5195H28.3516V25.1016H50.3301C50.7216 25.1016 51.0391 25.419 51.0391 25.8105C51.0391 26.2021 50.7216 26.5195 50.3301 26.5195ZM50.3301 43.5351H28.3516V42.1172H50.3301C50.7216 42.1172 51.0391 42.4346 51.0391 42.8262C51.0391 43.2177 50.7216 43.5351 50.3301 43.5351Z" fill="#C8C6C4"/>
<path d="M2.83594 48.5H25.5234C27.0896 48.5 28.3594 47.2303 28.3594 45.664V22.9766C28.3594 21.4103 27.0896 20.1406 25.5234 20.1406H2.83594C1.26972 20.1406 0 21.4103 0 22.9766V45.664C0 47.2303 1.26972 48.5 2.83594 48.5Z" fill="#185ABD"/>
<path d="M9.65565 39.0319C9.70251 39.402 9.73293 39.7245 9.74753 40.0001H9.80156C9.82325 39.7389 9.86459 39.4238 9.9257 39.0537C9.98681 38.6842 10.0464 38.3724 10.1042 38.1185L12.6097 27.2305H15.8499L18.4421 37.9554C18.5718 38.4849 18.6798 39.1588 18.7661 39.9783H18.8092C18.8452 39.4126 18.9352 38.76 19.0792 38.0204L21.1531 27.2305H24.1016L20.4728 42.8281H17.0271L14.5538 32.4951C14.4818 32.1975 14.4008 31.81 14.3108 31.3312C14.2207 30.853 14.1649 30.5048 14.1434 30.2873H14.1003C14.0715 30.5411 14.0156 30.918 13.9327 31.4181C13.8499 31.9188 13.7831 32.2882 13.7329 32.5276L11.4107 42.8281H7.91141L4.25 27.2305H7.25248L9.51009 38.1405C9.56036 38.3649 9.60878 38.6624 9.65565 39.0319Z" fill="white"/>
</svg>