<svg width="64" height="64" viewBox="0 0 64 64" fill="none" xmlns="http://www.w3.org/2000/svg">
<path fill-rule="evenodd" clip-rule="evenodd" d="M60.4662 -0.00390619H3.52257C1.57225 -0.00286422 -0.00815481 1.57866 -0.00781244 3.52898V60.4726C-0.00677047 62.4229 1.57475 64.0033 3.52507 64.003H34.1834V39.2503H25.87V29.5618H34.1834V22.4316C34.1834 14.1645 39.232 9.66276 46.6072 9.66276C50.1394 9.66276 53.1754 9.92591 54.0605 10.0434V18.6856H48.9743C44.9614 18.6856 44.1844 20.5927 44.1844 23.3911V29.5618H53.7786L52.5285 39.2503H44.1844V64.003H60.4662C60.9301 64.0031 61.3896 63.9117 61.8183 63.7342C62.2469 63.5567 62.6364 63.2965 62.9645 62.9684C63.2926 62.6403 63.5528 62.2508 63.7303 61.8222C63.9078 61.3935 63.9991 60.9341 63.9991 60.4701V3.52647C63.998 1.57616 62.4165 -0.00424856 60.4662 -0.00390619Z" fill="#A5A5A5"/>
<path fill-rule="evenodd" clip-rule="evenodd" d="M44.1817 64.0043V39.2516H52.5263L53.7764 29.5631H44.1817V23.3924C44.1817 20.594 44.9586 18.6869 48.9715 18.6869H54.0577V10.0447C53.1726 9.92722 50.1367 9.66406 46.6044 9.66406C39.2286 9.66406 34.1806 14.1645 34.1806 22.4329V29.5631H25.8672V39.2516H34.1806V64.0043H44.1817Z" fill="white"/>
<path fill-rule="evenodd" clip-rule="evenodd" d="M60.4662 -0.00390619H3.52257C1.57225 -0.00286422 -0.00815481 1.57866 -0.00781244 3.52898V60.4726C-0.00677047 62.4229 1.57475 64.0033 3.52507 64.003H34.1834V39.2503H25.87V29.5618H34.1834V22.4316C34.1834 14.1645 39.232 9.66276 46.6072 9.66276C50.1394 9.66276 53.1754 9.92591 54.0605 10.0434V18.6856H48.9743C44.9614 18.6856 44.1844 20.5927 44.1844 23.3911V29.5618H53.7786L52.5285 39.2503H44.1844V64.003H60.4662C60.9301 64.0031 61.3896 63.9117 61.8183 63.7342C62.2469 63.5567 62.6364 63.2965 62.9645 62.9684C63.2926 62.6403 63.5528 62.2508 63.7303 61.8222C63.9078 61.3935 63.9991 60.9341 63.9991 60.4701V3.52647C63.998 1.57616 62.4165 -0.00424856 60.4662 -0.00390619Z" fill="#A5A5A5"/>
<path fill-rule="evenodd" clip-rule="evenodd" d="M44.1817 64.0043V39.2516H52.5263L53.7764 29.5631H44.1817V23.3924C44.1817 20.594 44.9586 18.6869 48.9715 18.6869H54.0577V10.0447C53.1726 9.92722 50.1367 9.66406 46.6044 9.66406C39.2286 9.66406 34.1806 14.1645 34.1806 22.4329V29.5631H25.8672V39.2516H34.1806V64.0043H44.1817Z" fill="#F4F4F4"/>
</svg>
