<svg width="18" height="17" viewBox="0 0 18 17" fill="none" xmlns="http://www.w3.org/2000/svg">
<path d="M13.2349 4.9926C13.1654 4.04868 13.0285 3.12669 12.9124 2.2333C12.8502 1.75542 12.4641 1.38172 11.9842 1.3376C10.4347 1.19514 8.8118 1 7.14022 1C5.46863 1 3.84577 1.19514 2.29624 1.3376C1.81636 1.38172 1.43019 1.75541 1.36807 2.2333C1.2046 3.49098 1 4.80534 1 6.15779C1 7.51024 1.2046 8.8246 1.36807 10.0823C1.43019 10.5602 1.81637 10.9339 2.29625 10.978C2.96138 11.0391 3.64003 11.11 4.33023 11.171" stroke="#A5A5A5" stroke-width="1.5"/>
<path d="M16.9245 11.8216C15.9105 10.9053 14.7933 10.2773 13.6534 10.2773C11.3096 10.2773 9.06245 12.9317 7.60938 15.2889C8.66607 15.388 9.75126 15.4735 10.8578 15.4735C12.2192 15.4735 13.5483 15.3441 14.8318 15.2191C15.0459 15.1982 15.2586 15.1775 15.4701 15.1575C16.0841 15.0995 16.5792 14.621 16.6602 14.0095C16.6731 13.9122 16.6862 13.8145 16.6993 13.7165C16.7821 13.097 16.8666 12.4646 16.9245 11.8216Z" stroke="#A5A5A5" stroke-width="1.5" stroke-linecap="round" stroke-linejoin="round"/>
<path d="M8.35798 9.63783C9.06482 9.63783 9.63783 9.06482 9.63783 8.35798C9.63783 7.65113 9.06482 7.07812 8.35798 7.07812C7.65113 7.07812 7.07812 7.65113 7.07812 8.35798C7.07812 9.06482 7.65113 9.63783 8.35798 9.63783Z" fill="#A5A5A5"/>
<path d="M5.08682 14.2424C5.14894 14.7203 5.53511 15.094 6.01499 15.1381C7.56452 15.2806 9.18738 15.4757 10.859 15.4757C12.5306 15.4757 14.1534 15.2806 15.7029 15.1381C16.1828 15.094 16.569 14.7203 16.6311 14.2424C16.7946 12.9848 16.9992 11.6704 16.9992 10.3179C16.9992 8.9655 16.7946 7.65114 16.6311 6.39345C16.569 5.91557 16.1828 5.54187 15.7029 5.49776C14.1534 5.3553 12.5306 5.16016 10.859 5.16016C9.18738 5.16016 7.56452 5.3553 6.01499 5.49776C5.53511 5.54187 5.14894 5.91557 5.08682 6.39345C4.92335 7.65114 4.71875 8.9655 4.71875 10.3179C4.71875 11.6704 4.92335 12.9848 5.08682 14.2424Z" stroke="#A5A5A5" stroke-width="1.5"/>
</svg>
