<svg width="18" height="18" viewBox="0 0 18 18" fill="none" xmlns="http://www.w3.org/2000/svg">
<path d="M16.8865 2.53036L16.1408 2.61014L16.8865 2.53036ZM15.4735 1.11375L15.5566 0.368366L15.5566 0.368366L15.4735 1.11375ZM15.4735 7.30237L15.3905 6.55699L15.4735 7.30237ZM16.8865 5.88576L16.1408 5.80598L16.8865 5.88576ZM12.0988 1.11375L12.0157 0.368366L12.0988 1.11375ZM10.6858 2.53036L11.4316 2.61014L10.6858 2.53036ZM12.0988 7.30237L12.1819 6.55699L12.0988 7.30237ZM10.6858 5.88576L11.4316 5.80598L10.6858 5.88576ZM13.7862 6.66612C13.2545 6.66612 12.7244 6.61746 12.1819 6.55699L12.0157 8.04776C12.5712 8.10967 13.1685 8.16612 13.7862 8.16612V6.66612ZM15.3905 6.55699C14.8479 6.61746 14.3179 6.66612 13.7862 6.66612V8.16612C14.4039 8.16612 15.0012 8.10967 15.5566 8.04776L15.3905 6.55699ZM17.6323 5.96555C17.6914 5.41247 17.7442 4.82023 17.7442 4.20806H16.2442C16.2442 4.73863 16.1984 5.26728 16.1408 5.80598L17.6323 5.96555ZM17.7442 4.20806C17.7442 3.59589 17.6914 3.00365 17.6323 2.45057L16.1408 2.61014C16.1984 3.14884 16.2442 3.67749 16.2442 4.20806H17.7442ZM13.7862 1.75C14.3179 1.75 14.8479 1.79866 15.3905 1.85913L15.5566 0.368366C15.0012 0.306454 14.4039 0.25 13.7862 0.25V1.75ZM12.1819 1.85913C12.7244 1.79866 13.2545 1.75 13.7862 1.75V0.25C13.1685 0.25 12.5712 0.306454 12.0157 0.368366L12.1819 1.85913ZM9.9401 2.45057C9.88093 3.00365 9.82812 3.59589 9.82812 4.20806H11.3281C11.3281 3.67749 11.374 3.14884 11.4316 2.61014L9.9401 2.45057ZM9.82812 4.20806C9.82812 4.82023 9.88093 5.41247 9.9401 5.96555L11.4316 5.80598C11.374 5.26728 11.3281 4.73863 11.3281 4.20806H9.82812ZM17.6323 2.45057C17.5155 1.3596 16.6437 0.489539 15.5566 0.368366L15.3905 1.85913C15.7816 1.90273 16.0993 2.22217 16.1408 2.61014L17.6323 2.45057ZM15.5566 8.04776C16.6437 7.92658 17.5155 7.05652 17.6323 5.96555L16.1408 5.80598C16.0993 6.19395 15.7816 6.51339 15.3905 6.55699L15.5566 8.04776ZM12.0157 0.368366C10.9286 0.489539 10.0568 1.3596 9.9401 2.45057L11.4316 2.61014C11.4731 2.22217 11.7908 1.90273 12.1819 1.85913L12.0157 0.368366ZM12.1819 6.55699C11.7908 6.51339 11.4731 6.19395 11.4316 5.80598L9.9401 5.96555C10.0568 7.05652 10.9286 7.92658 12.0157 8.04776L12.1819 6.55699Z" fill="#A5A5A5"/>
<path d="M7.3084 2.53036L6.56265 2.61014L7.3084 2.53036ZM5.89542 1.11375L5.9785 0.368366L5.9785 0.368366L5.89542 1.11375ZM5.89542 7.30237L5.81234 6.55699L5.89542 7.30237ZM7.3084 5.88576L6.56265 5.80598L7.3084 5.88576ZM2.5207 1.11375L2.43762 0.368366L2.5207 1.11375ZM1.10772 2.53036L1.85347 2.61014L1.10772 2.53036ZM2.5207 7.30237L2.60378 6.55699L2.5207 7.30237ZM1.10772 5.88576L1.85347 5.80598L1.10772 5.88576ZM4.20806 6.66612C3.67639 6.66612 3.14632 6.61746 2.60378 6.55699L2.43762 8.04776C2.99305 8.10967 3.59033 8.16612 4.20806 8.16612V6.66612ZM5.81234 6.55699C5.2698 6.61746 4.73973 6.66612 4.20806 6.66612V8.16612C4.82579 8.16612 5.42307 8.10967 5.9785 8.04776L5.81234 6.55699ZM8.05414 5.96555C8.11332 5.41247 8.16612 4.82023 8.16612 4.20806H6.66612C6.66612 4.73863 6.62029 5.26728 6.56265 5.80598L8.05414 5.96555ZM8.16612 4.20806C8.16612 3.59589 8.11332 3.00365 8.05414 2.45057L6.56265 2.61014C6.62029 3.14884 6.66612 3.67749 6.66612 4.20806H8.16612ZM4.20806 1.75C4.73973 1.75 5.2698 1.79866 5.81234 1.85913L5.9785 0.368366C5.42307 0.306454 4.82579 0.25 4.20806 0.25V1.75ZM2.60378 1.85913C3.14632 1.79866 3.67639 1.75 4.20806 1.75V0.25C3.59033 0.25 2.99305 0.306454 2.43762 0.368366L2.60378 1.85913ZM0.361978 2.45057C0.302805 3.00365 0.25 3.59589 0.25 4.20806H1.75C1.75 3.67749 1.79583 3.14884 1.85347 2.61014L0.361978 2.45057ZM0.25 4.20806C0.25 4.82023 0.302805 5.41247 0.361979 5.96555L1.85347 5.80598C1.79583 5.26728 1.75 4.73863 1.75 4.20806H0.25ZM8.05414 2.45057C7.93742 1.3596 7.06561 0.489539 5.9785 0.368366L5.81234 1.85913C6.20346 1.90273 6.52115 2.22217 6.56265 2.61014L8.05414 2.45057ZM5.9785 8.04776C7.06561 7.92658 7.93742 7.05652 8.05414 5.96555L6.56265 5.80598C6.52115 6.19395 6.20345 6.51339 5.81234 6.55699L5.9785 8.04776ZM2.43762 0.368366C1.35051 0.489539 0.478699 1.3596 0.361978 2.45057L1.85347 2.61014C1.89497 2.22217 2.21267 1.90273 2.60378 1.85913L2.43762 0.368366ZM2.60378 6.55699C2.21267 6.51339 1.89498 6.19395 1.85347 5.80598L0.361979 5.96555C0.478699 7.05652 1.35051 7.92658 2.43762 8.04776L2.60378 6.55699Z" fill="#A5A5A5"/>
<path d="M7.3084 12.1124L6.56265 12.1922L7.3084 12.1124ZM5.89542 10.6958L5.9785 9.9504L5.9785 9.9504L5.89542 10.6958ZM5.89542 16.8844L5.81234 16.139L5.89542 16.8844ZM7.3084 15.4678L6.56265 15.388L7.3084 15.4678ZM2.5207 10.6958L2.43762 9.9504L2.5207 10.6958ZM1.10772 12.1124L1.85347 12.1922L1.10772 12.1124ZM2.5207 16.8844L2.60378 16.139L2.5207 16.8844ZM1.10772 15.4678L1.85347 15.388L1.10772 15.4678ZM4.20806 16.2482C3.67639 16.2482 3.14632 16.1995 2.60378 16.139L2.43762 17.6298C2.99305 17.6917 3.59033 17.7482 4.20806 17.7482V16.2482ZM5.81234 16.139C5.2698 16.1995 4.73973 16.2482 4.20806 16.2482V17.7482C4.82579 17.7482 5.42307 17.6917 5.9785 17.6298L5.81234 16.139ZM8.05414 15.5476C8.11332 14.9945 8.16612 14.4023 8.16612 13.7901H6.66612C6.66612 14.3207 6.62029 14.8493 6.56265 15.388L8.05414 15.5476ZM8.16612 13.7901C8.16612 13.1779 8.11332 12.5857 8.05414 12.0326L6.56265 12.1922C6.62029 12.7309 6.66612 13.2595 6.66612 13.7901H8.16612ZM4.20806 11.332C4.73973 11.332 5.2698 11.3807 5.81234 11.4412L5.9785 9.9504C5.42307 9.88849 4.82579 9.83203 4.20806 9.83203V11.332ZM2.60378 11.4412C3.14632 11.3807 3.67639 11.332 4.20806 11.332V9.83203C3.59033 9.83203 2.99305 9.88849 2.43762 9.9504L2.60378 11.4412ZM0.361978 12.0326C0.302805 12.5857 0.25 13.1779 0.25 13.7901H1.75C1.75 13.2595 1.79583 12.7309 1.85347 12.1922L0.361978 12.0326ZM0.25 13.7901C0.25 14.4023 0.302805 14.9945 0.361979 15.5476L1.85347 15.388C1.79583 14.8493 1.75 14.3207 1.75 13.7901H0.25ZM8.05414 12.0326C7.93742 10.9416 7.06561 10.0716 5.9785 9.9504L5.81234 11.4412C6.20346 11.4848 6.52115 11.8042 6.56265 12.1922L8.05414 12.0326ZM5.9785 17.6298C7.06561 17.5086 7.93742 16.6385 8.05414 15.5476L6.56265 15.388C6.52115 15.776 6.20345 16.0954 5.81234 16.139L5.9785 17.6298ZM2.43762 9.9504C1.35051 10.0716 0.478699 10.9416 0.361978 12.0326L1.85347 12.1922C1.89497 11.8042 2.21267 11.4848 2.60378 11.4412L2.43762 9.9504ZM2.60378 16.139C2.21267 16.0954 1.89498 15.776 1.85347 15.388L0.361979 15.5476C0.478699 16.6385 1.35051 17.5086 2.43762 17.6298L2.60378 16.139Z" fill="#A5A5A5"/>
<path d="M16.8865 12.1124L16.1408 12.1922L16.8865 12.1124ZM15.4735 10.6958L15.5566 9.9504L15.5566 9.9504L15.4735 10.6958ZM15.4735 16.8844L15.3905 16.139L15.4735 16.8844ZM16.8865 15.4678L16.1408 15.388L16.8865 15.4678ZM12.0988 10.6958L12.0157 9.9504L12.0988 10.6958ZM10.6858 12.1124L11.4316 12.1922L10.6858 12.1124ZM12.0988 16.8844L12.1819 16.139L12.0988 16.8844ZM10.6858 15.4678L11.4316 15.388L10.6858 15.4678ZM13.7862 16.2482C13.2545 16.2482 12.7244 16.1995 12.1819 16.139L12.0157 17.6298C12.5712 17.6917 13.1685 17.7482 13.7862 17.7482V16.2482ZM15.3905 16.139C14.8479 16.1995 14.3179 16.2482 13.7862 16.2482V17.7482C14.4039 17.7482 15.0012 17.6917 15.5566 17.6298L15.3905 16.139ZM17.6323 15.5476C17.6914 14.9945 17.7442 14.4023 17.7442 13.7901H16.2442C16.2442 14.3207 16.1984 14.8493 16.1408 15.388L17.6323 15.5476ZM17.7442 13.7901C17.7442 13.1779 17.6914 12.5857 17.6323 12.0326L16.1408 12.1922C16.1984 12.7309 16.2442 13.2595 16.2442 13.7901H17.7442ZM13.7862 11.332C14.3179 11.332 14.8479 11.3807 15.3905 11.4412L15.5566 9.9504C15.0012 9.88849 14.4039 9.83203 13.7862 9.83203V11.332ZM12.1819 11.4412C12.7244 11.3807 13.2545 11.332 13.7862 11.332V9.83203C13.1685 9.83203 12.5712 9.88849 12.0157 9.9504L12.1819 11.4412ZM9.9401 12.0326C9.88093 12.5857 9.82812 13.1779 9.82812 13.7901H11.3281C11.3281 13.2595 11.374 12.7309 11.4316 12.1922L9.9401 12.0326ZM9.82812 13.7901C9.82812 14.4023 9.88093 14.9945 9.9401 15.5476L11.4316 15.388C11.374 14.8493 11.3281 14.3207 11.3281 13.7901H9.82812ZM17.6323 12.0326C17.5155 10.9416 16.6437 10.0716 15.5566 9.9504L15.3905 11.4412C15.7816 11.4848 16.0993 11.8042 16.1408 12.1922L17.6323 12.0326ZM15.5566 17.6298C16.6437 17.5086 17.5155 16.6385 17.6323 15.5476L16.1408 15.388C16.0993 15.776 15.7816 16.0954 15.3905 16.139L15.5566 17.6298ZM12.0157 9.9504C10.9286 10.0716 10.0568 10.9416 9.9401 12.0326L11.4316 12.1922C11.4731 11.8042 11.7908 11.4848 12.1819 11.4412L12.0157 9.9504ZM12.1819 16.139C11.7908 16.0954 11.4731 15.776 11.4316 15.388L9.9401 15.5476C10.0568 16.6385 10.9286 17.5086 12.0157 17.6298L12.1819 16.139Z" fill="#A5A5A5"/>
</svg>
