<svg width="64" height="64" viewBox="0 0 64 64" fill="none" xmlns="http://www.w3.org/2000/svg">
<path d="M54.5329 54.5323H45.0498V39.6813C45.0498 36.14 44.9865 31.5812 40.1176 31.5812C35.1784 31.5812 34.4227 35.4396 34.4227 39.4235V54.5313H24.9396V23.9917H34.0434V28.1653H34.1708C35.0819 26.6075 36.3985 25.326 37.9802 24.4573C39.562 23.5886 41.3498 23.1651 43.1531 23.2321C52.7647 23.2321 54.5368 29.5542 54.5368 37.7788L54.5329 54.5323ZM14.2395 19.8172C13.1511 19.8174 12.087 19.4948 11.1819 18.8903C10.2768 18.2857 9.57133 17.4264 9.15463 16.4209C8.73792 15.4154 8.62875 14.3089 8.8409 13.2413C9.05305 12.1738 9.57699 11.1931 10.3465 10.4234C11.116 9.65359 12.0965 9.12929 13.1639 8.91676C14.2314 8.70422 15.3379 8.81301 16.3436 9.22935C17.3492 9.64569 18.2088 10.3509 18.8137 11.2558C19.4185 12.1607 19.7415 13.2246 19.7417 14.313C19.7418 15.0357 19.5996 15.7513 19.3232 16.4191C19.0467 17.0868 18.6415 17.6935 18.1305 18.2046C17.6196 18.7157 17.013 19.1212 16.3454 19.3979C15.6778 19.6746 14.9622 19.817 14.2395 19.8172ZM18.9811 54.5323H9.48806V23.9917H18.9811V54.5323ZM59.2606 0.00435883H4.7228C3.48494 -0.00961036 2.29217 0.468434 1.4066 1.33344C0.521028 2.19845 0.0151073 3.37966 0 4.6175V59.3815C0.0145903 60.62 0.520199 61.802 1.40574 62.6679C2.29128 63.5338 3.48433 64.0128 4.7228 63.9996H59.2606C60.5015 64.0152 61.6979 63.5376 62.587 62.6717C63.476 61.8058 63.985 60.6225 64.0022 59.3815V4.61355C63.9845 3.37325 63.4752 2.19071 62.5861 1.32572C61.697 0.460729 60.5009 -0.0159505 59.2606 0.000407524" fill="#A5A5A5"/>
</svg>
