<svg width="57" height="61" viewBox="0 0 57 61" fill="none" xmlns="http://www.w3.org/2000/svg">
<path d="M41.8613 1H13.4459C12.6646 1 12.0312 1.63336 12.0312 2.4147V57.5879C12.0312 58.3692 12.6646 59.0026 13.4459 59.0026H54.4722C55.2535 59.0026 55.8869 58.3692 55.8869 57.5879V15.0256C55.8869 14.6504 55.7378 14.2906 55.4725 14.0253L42.8616 1.41436C42.5963 1.14904 42.2365 1 41.8613 1Z" fill="white" stroke="#979593" stroke-width="2" stroke-miterlimit="10"/>
<path d="M41.7344 1V13.7323C41.7344 14.5136 42.3677 15.147 43.1491 15.147H55.8813" stroke="#979593" stroke-width="2" stroke-miterlimit="10"/>
<path d="M2.82939 48.3916H25.4646C27.0272 48.3916 28.2939 47.1248 28.2939 45.5622V22.9271C28.2939 21.3644 27.0272 20.0977 25.4646 20.0977H2.82939C1.26679 20.0977 0 21.3644 0 22.9271V45.5622C0 47.1248 1.26679 48.3916 2.82939 48.3916Z" fill="#185ABD"/>
<path d="M7.12634 42.4753C8.61997 42.4753 9.8308 41.2645 9.8308 39.7709C9.8308 38.2772 8.61997 37.0664 7.12634 37.0664C5.6327 37.0664 4.42188 38.2772 4.42188 39.7709C4.42188 41.2645 5.6327 42.4753 7.12634 42.4753Z" stroke="white" stroke-width="1.5" stroke-linecap="round" stroke-linejoin="round"/>
<path d="M17.7706 41.0921C19.2361 41.0921 20.4241 39.9041 20.4241 38.4386C20.4241 36.9731 19.2361 35.7852 17.7706 35.7852C16.3052 35.7852 15.1172 36.9731 15.1172 38.4386C15.1172 39.9041 16.3052 41.0921 17.7706 41.0921Z" stroke="white" stroke-width="1.5" stroke-linecap="round" stroke-linejoin="round"/>
<path d="M20.4183 38.458V31.457M9.82031 33.9005L9.82031 39.7748" stroke="white" stroke-width="1.5" stroke-linecap="round" stroke-linejoin="round"/>
<path d="M9.82031 33.8973V30.864C9.82031 29.9578 10.4292 29.1632 11.3064 28.9358C12.1761 28.7103 13.0615 28.4889 13.9622 28.2813C15.6414 27.8943 17.2939 27.5735 18.8897 27.2637V27.2637C19.7429 27.0981 20.4183 27.688 20.4183 28.557V31.4446C20.2416 31.4917 20.0642 31.5391 19.8861 31.5868C18.3157 32.0068 16.6895 32.4417 15.0103 32.8287C13.3311 33.2158 11.6786 33.5366 10.0828 33.8464C9.99514 33.8634 9.90764 33.8804 9.82031 33.8973Z" stroke="white" stroke-width="1.5"/>
</svg>