<svg width="18" height="19" viewBox="0 0 18 19" fill="none" xmlns="http://www.w3.org/2000/svg">
<path d="M1.65618 12.814L2.14144 12.2422C2.12685 12.2298 2.1118 12.218 2.09631 12.2067L1.65618 12.814ZM16.3438 12.814L15.9037 12.2067C15.8882 12.218 15.8731 12.2298 15.8586 12.2422L16.3438 12.814ZM16.0235 9.92936L15.7357 10.622L16.0235 9.92936ZM3.23964 9.06519L3.90331 9.41454L3.23964 9.06519ZM9 0.25C7.45668 0.25 5.97362 0.850792 4.87784 1.92486L5.92784 2.99608C6.74011 2.1999 7.84493 1.75 9 1.75V0.25ZM4.87784 1.92486C3.78155 2.99942 3.16285 4.46008 3.16285 5.98635H4.66285C4.66285 4.8677 5.11607 3.79176 5.92784 2.99608L4.87784 1.92486ZM1.65618 12.814C1.17091 13.3859 1.17159 13.3864 1.17226 13.387C1.1725 13.3872 1.17318 13.3878 1.17364 13.3882C1.17457 13.389 1.17552 13.3898 1.17649 13.3906C1.17843 13.3922 1.18045 13.3938 1.18255 13.3956C1.18675 13.399 1.19127 13.4026 1.19612 13.4064C1.20583 13.4141 1.21688 13.4225 1.22936 13.4316C1.25432 13.4498 1.28498 13.4709 1.32212 13.4943C1.39637 13.5411 1.49654 13.5973 1.62885 13.6594C1.89304 13.7834 2.28768 13.9317 2.86458 14.0747C4.01584 14.3599 5.91594 14.6294 9 14.6294V13.1294C5.99571 13.1294 4.22391 12.8661 3.22534 12.6187C2.72732 12.4953 2.42757 12.3773 2.2661 12.3015C2.18558 12.2637 2.1401 12.2368 2.12191 12.2253C2.11283 12.2196 2.11057 12.2177 2.11417 12.2204C2.11596 12.2217 2.11922 12.2241 2.1238 12.2277C2.1261 12.2295 2.12873 12.2316 2.13167 12.234C2.13314 12.2352 2.13469 12.2365 2.13632 12.2379C2.13714 12.2385 2.13797 12.2392 2.13882 12.2399C2.13925 12.2403 2.1399 12.2409 2.14012 12.241C2.14078 12.2416 2.14144 12.2422 1.65618 12.814ZM3.16285 5.98635C3.16285 7.21226 2.90497 8.09083 2.57597 8.71585L3.90331 9.41454C4.35723 8.5522 4.66285 7.42972 4.66285 5.98635H3.16285ZM1.6888 9.23675C0.723349 9.63783 0.28641 10.4906 0.252244 11.3104C0.219656 12.0924 0.548096 12.9372 1.21604 13.4213L2.09631 12.2067C1.90241 12.0662 1.7356 11.741 1.75094 11.3729C1.7647 11.0427 1.91887 10.7655 2.26427 10.622L1.6888 9.23675ZM9 1.75C10.1551 1.75 11.2599 2.1999 12.0722 2.99608L13.1222 1.92486C12.0264 0.850792 10.5433 0.25 9 0.25V1.75ZM12.0722 2.99608C12.8839 3.79176 13.3372 4.8677 13.3372 5.98635H14.8372C14.8372 4.46008 14.2184 2.99942 13.1222 1.92486L12.0722 2.99608ZM16.3438 12.814C15.8586 12.2422 15.8592 12.2416 15.8599 12.241C15.8601 12.2409 15.8607 12.2403 15.8612 12.2399C15.862 12.2392 15.8629 12.2385 15.8637 12.2379C15.8653 12.2365 15.8669 12.2352 15.8683 12.234C15.8713 12.2316 15.8739 12.2295 15.8762 12.2277C15.8808 12.2241 15.884 12.2217 15.8858 12.2204C15.8894 12.2177 15.8872 12.2196 15.8781 12.2253C15.8599 12.2368 15.8144 12.2637 15.7339 12.3015C15.5724 12.3773 15.2727 12.4953 14.7747 12.6187C13.7761 12.8661 12.0043 13.1294 9 13.1294V14.6294C12.0841 14.6294 13.9842 14.3599 15.1354 14.0747C15.7123 13.9317 16.107 13.7834 16.3711 13.6594C16.5035 13.5973 16.6036 13.5411 16.6779 13.4943C16.715 13.4709 16.7457 13.4498 16.7706 13.4316C16.7831 13.4225 16.7942 13.4141 16.8039 13.4064C16.8087 13.4026 16.8133 13.399 16.8175 13.3956C16.8195 13.3938 16.8216 13.3922 16.8235 13.3906C16.8245 13.3898 16.8254 13.389 16.8264 13.3882C16.8268 13.3878 16.8275 13.3872 16.8277 13.387C16.8284 13.3864 16.8291 13.3859 16.3438 12.814ZM13.3372 5.98635C13.3372 7.42972 13.6428 8.5522 14.0967 9.41454L15.424 8.71585C15.095 8.09083 14.8372 7.21225 14.8372 5.98635H13.3372ZM15.7357 10.622C16.0811 10.7655 16.2353 11.0427 16.2491 11.3729C16.2644 11.741 16.0976 12.0662 15.9037 12.2067L16.784 13.4213C17.4519 12.9372 17.7803 12.0924 17.7478 11.3104C17.7136 10.4906 17.2767 9.63783 16.3112 9.23675L15.7357 10.622ZM14.0967 9.41454C14.3069 9.81396 14.6258 10.0687 14.9199 10.2424C15.201 10.4083 15.5178 10.5314 15.7357 10.622L16.3112 9.23675C16.0414 9.12467 15.8496 9.04936 15.6826 8.95072C15.5286 8.85982 15.4598 8.78378 15.424 8.71585L14.0967 9.41454ZM2.57597 8.71585C2.54021 8.78378 2.47137 8.85982 2.31741 8.95072C2.15035 9.04936 1.95857 9.12467 1.6888 9.23675L2.26427 10.622C2.48224 10.5314 2.799 10.4083 3.08006 10.2424C3.37422 10.0687 3.69306 9.81396 3.90331 9.41454L2.57597 8.71585Z" fill="#A5A5A5"/>
<path d="M7.20312 16.6758C7.57227 17.3504 8.29863 17.8092 9.13431 17.8092C9.97 17.8092 10.6964 17.3504 11.0655 16.6758" stroke="#A5A5A5" stroke-width="1.5" stroke-linecap="round" stroke-linejoin="round"/>
</svg>
