<svg width="18" height="17" viewBox="0 0 18 17" fill="none" xmlns="http://www.w3.org/2000/svg">
<path d="M12.0781 8.2778C13.7762 8.2778 15.1527 6.90126 15.1527 5.20321C15.1527 3.88967 14.329 2.76852 13.1699 2.32812" stroke="#A5A5A5" stroke-width="1.5" stroke-linecap="round" stroke-linejoin="round"/>
<path d="M6.89532 7.66564C8.73599 7.66564 10.2281 6.17349 10.2281 4.33282C10.2281 2.49215 8.73599 1 6.89532 1C5.05465 1 3.5625 2.49215 3.5625 4.33282C3.5625 6.17349 5.05465 7.66564 6.89532 7.66564Z" stroke="#A5A5A5" stroke-width="1.5" stroke-linecap="round" stroke-linejoin="round"/>
<path d="M12.0037 12.3501C13.6339 13.4359 12.5331 15.5301 10.5743 15.5301H3.21869C1.25996 15.5301 0.159128 13.4359 1.78938 12.3501C3.25167 11.3762 5.00781 10.8086 6.89652 10.8086C8.78523 10.8086 10.5414 11.3762 12.0037 12.3501Z" stroke="#A5A5A5" stroke-width="1.5"/>
<path d="M16.2698 12.5939L15.8541 13.2181L16.2698 12.5939ZM10.2891 14.7774C9.87485 14.7774 9.53906 15.1132 9.53906 15.5274C9.53906 15.9416 9.87485 16.2774 10.2891 16.2774V14.7774ZM15.2505 11.1873C14.8707 11.022 14.4288 11.1959 14.2635 11.5757C14.0983 11.9555 14.2722 12.3974 14.652 12.5627L15.2505 11.1873ZM10.2891 16.2774H14.9512V14.7774H10.2891V16.2774ZM14.9512 16.2774C16.1211 16.2774 17.1025 15.6483 17.5283 14.7607C17.7431 14.313 17.8168 13.7925 17.6758 13.277C17.5337 12.7572 17.1909 12.3062 16.6856 11.9696L15.8541 13.2181C16.1007 13.3823 16.195 13.5484 16.2289 13.6726C16.2641 13.8011 16.2529 13.9514 16.1759 14.1119C16.0182 14.4406 15.5883 14.7774 14.9512 14.7774V16.2774ZM14.652 12.5627C15.0733 12.7461 15.4753 12.9658 15.8541 13.2181L16.6856 11.9696C16.2337 11.6687 15.7538 11.4063 15.2505 11.1873L14.652 12.5627Z" fill="#A5A5A5"/>
</svg>
