<svg width="64" height="64" viewBox="0 0 64 64" fill="none" xmlns="http://www.w3.org/2000/svg">
<path d="M32 64C49.6731 64 64 49.6731 64 32C64 14.3269 49.6731 0 32 0C14.3269 0 0 14.3269 0 32C0 49.6731 14.3269 64 32 64Z" fill="#A5A5A5"/>
<path fill-rule="evenodd" clip-rule="evenodd" d="M23.6 58.4C26.24 59.2 28.96 59.68 31.84 59.68C47.2 59.68 59.68 47.2 59.68 31.84C59.68 16.48 47.2 4 31.84 4C16.48 4 4 16.48 4 31.84C4 43.68 11.44 53.84 21.92 57.84C21.68 55.68 21.44 52.08 21.92 49.6L25.12 35.84C25.12 35.84 24.32 34.24 24.32 31.68C24.32 27.84 26.72 24.96 29.44 24.96C31.84 24.96 32.96 26.72 32.96 28.96C32.96 31.36 31.36 34.8 30.56 38.08C30.08 40.8 32 43.2 34.8 43.2C39.76 43.2 43.6 37.92 43.6 30.4C43.6 23.76 38.8 19.2 31.92 19.2C24.08 19.2 19.44 25.04 19.44 31.2C19.44 33.6 20.24 36 21.52 37.6C21.76 37.76 21.76 38 21.68 38.4L20.88 41.44C20.88 41.92 20.56 42.08 20.08 41.76C16.56 40.16 14.48 35.12 14.48 31.04C14.48 22.24 20.72 14.24 32.72 14.24C42.32 14.24 49.76 21.12 49.76 30.24C49.76 39.84 43.84 47.52 35.36 47.52C32.64 47.52 30 46.08 29.12 44.32L27.2 50.96C26.56 53.36 24.8 56.56 23.6 58.48V58.4Z" fill="#F4F4F4"/>
</svg>
