<svg width="57" height="61" viewBox="0 0 57 61" fill="none" xmlns="http://www.w3.org/2000/svg">
<path d="M41.8613 1H13.4459C12.6646 1 12.0312 1.63336 12.0312 2.4147V57.5879C12.0312 58.3692 12.6646 59.0026 13.4459 59.0026H54.4722C55.2535 59.0026 55.8869 58.3692 55.8869 57.5879V15.0256C55.8869 14.6504 55.7378 14.2906 55.4725 14.0253L42.8616 1.41436C42.5963 1.14904 42.2365 1 41.8613 1Z" fill="white" stroke="#979593" stroke-width="2" stroke-miterlimit="10"/>
<path d="M41.7344 1V13.7323C41.7344 14.5136 42.3677 15.147 43.1491 15.147H55.8813" stroke="#979593" stroke-width="2" stroke-miterlimit="10"/>
<path d="M2.82939 48.3916H25.4646C27.0272 48.3916 28.2939 47.1248 28.2939 45.5622V22.9271C28.2939 21.3644 27.0272 20.0977 25.4646 20.0977H2.82939C1.26679 20.0977 0 21.3644 0 22.9271V45.5622C0 47.1248 1.26679 48.3916 2.82939 48.3916Z" fill="#185ABD"/>
<path d="M18.4025 38.3383C18.3355 39.5726 17.36 40.5581 16.1259 40.6303C14.9391 40.6997 13.7156 40.736 12.4654 40.736C11.2152 40.736 9.99175 40.6997 8.80487 40.6303C7.57085 40.5581 6.59533 39.5726 6.52828 38.3383C6.45843 37.0523 6.42188 35.7251 6.42188 34.368C6.42188 33.0109 6.45843 31.6837 6.52829 30.3977C6.59534 29.1634 7.57085 28.1779 8.80487 28.1057C9.99176 28.0363 11.2152 28 12.4654 28C13.7156 28 14.939 28.0363 16.1259 28.1057C17.3599 28.1779 18.3355 29.1634 18.4025 30.3977C18.4246 30.8042 18.4433 31.2147 18.4587 31.629L22.4219 29.8676V38.8769L18.4584 37.1154C18.4431 37.5268 18.4244 37.9346 18.4025 38.3383Z" stroke="white" stroke-width="1.5" stroke-linejoin="round"/>
</svg>