<svg width="64" height="64" viewBox="0 0 64 64" fill="none" xmlns="http://www.w3.org/2000/svg">
<path d="M0.72481 34.6234C0.591269 34.6234 0.485276 34.7267 0.46801 34.874L0 38.4289L0.46801 41.9227C0.485276 42.0699 0.591204 42.1725 0.72481 42.1725C0.854148 42.1725 0.959494 42.0706 0.980123 41.924L1.53485 38.4289L0.980123 34.8732C0.960141 34.7266 0.853501 34.6234 0.72481 34.6234ZM3.35677 32.6811C3.33472 32.5283 3.2253 32.423 3.0904 32.423C2.95479 32.423 2.84259 32.5318 2.82403 32.6811C2.82403 32.6825 2.19493 38.4289 2.19493 38.4289L2.82403 44.0495C2.84194 44.2002 2.95414 44.309 3.0904 44.309C3.22459 44.309 3.33407 44.203 3.35606 44.0509L4.07182 38.4289L3.35677 32.6811ZM13.2708 27.3793C13.0127 27.3793 12.7993 27.5905 12.7869 27.859L12.2859 38.4337L12.7869 45.2677C12.8 45.5347 13.0127 45.7453 13.2708 45.7453C13.5275 45.7453 13.7402 45.534 13.7554 45.2663V45.2684L14.3218 38.4337L13.7554 27.859C13.7402 27.5905 13.5275 27.3793 13.2708 27.3793ZM8.13963 31.0547C7.94142 31.0547 7.77968 31.213 7.76377 31.4243L7.19941 38.4309L7.76377 45.2098C7.7789 45.4197 7.94135 45.578 8.13963 45.578C8.33577 45.578 8.49751 45.4197 8.51477 45.2098L9.15623 38.4309L8.51477 31.4228C8.49751 31.213 8.33577 31.0547 8.13963 31.0547ZM18.4852 45.7447C18.8053 45.7447 19.0655 45.4865 19.0785 45.1561L19.57 38.4371L19.0792 24.3583C19.0662 24.0279 18.8059 23.7698 18.486 23.7698C18.1631 23.7698 17.9023 24.0286 17.8919 24.359L17.4562 38.4364L17.8919 45.1582C17.9023 45.4859 18.1631 45.7447 18.4852 45.7447ZM29.1605 45.7764C29.601 45.7764 29.9644 45.4136 29.9727 44.9676L30.3155 38.4413L29.9726 22.1813C29.965 21.736 29.6009 21.3726 29.1604 21.3726C28.7192 21.3726 28.3552 21.7353 28.3482 22.182L28.042 38.4358C28.042 38.4461 28.3482 44.9717 28.3482 44.9717C28.3552 45.4136 28.72 45.7764 29.1605 45.7764ZM23.7822 45.7509C24.1656 45.7509 24.4746 45.4432 24.485 45.0509V45.0557L24.902 38.4386L24.4843 24.2579C24.4739 23.8655 24.1649 23.5586 23.7815 23.5586C23.3954 23.5586 23.0864 23.8656 23.0781 24.2579L22.7072 38.4393L23.0788 45.0551C23.0871 45.4432 23.3961 45.7509 23.7822 45.7509ZM10.6952 45.6889C10.923 45.6889 11.1075 45.5065 11.1247 45.2663L11.7291 38.431L11.1247 31.9288C11.1083 31.6886 10.9238 31.5075 10.6952 31.5075C10.464 31.5075 10.2795 31.6899 10.2651 31.9316L9.73301 38.431L10.2651 45.2657C10.2802 45.5065 10.464 45.6889 10.6952 45.6889ZM5.60473 45.3145C5.77126 45.3145 5.90616 45.183 5.92543 45.0013L6.60406 38.4296L5.92607 31.6101C5.90609 31.4277 5.77119 31.2962 5.60467 31.2962C5.43601 31.2962 5.30111 31.4284 5.28391 31.6101L4.6865 38.4296L5.28391 45C5.30047 45.1823 5.43536 45.3145 5.60473 45.3145ZM26.4611 24.0218C26.0447 24.0218 25.7108 24.3529 25.7026 24.7769L25.364 38.4399L25.7026 45.0144C25.7108 45.4328 26.044 45.764 26.4611 45.764C26.8768 45.764 27.2086 45.4336 27.2181 45.0096V45.0151L27.5981 38.4406L27.2181 24.7754C27.2085 24.3529 26.8767 24.0218 26.4611 24.0218ZM15.8683 45.7585C16.1561 45.7585 16.3935 45.5237 16.4073 45.2243L16.9359 38.4357L16.4073 25.4424C16.3928 25.1422 16.1561 24.9083 15.8683 24.9083C15.5779 24.9083 15.3412 25.143 15.3288 25.4424L14.8607 38.4357L15.3295 45.2271C15.3411 45.5237 15.5779 45.7585 15.8683 45.7585ZM21.7711 45.1177V45.1142L22.2253 38.4379L21.7711 23.8848C21.76 23.5235 21.4751 23.2399 21.1234 23.2399C20.7695 23.2399 20.4846 23.5228 20.475 23.8848L20.0717 38.4371L20.4757 45.1169C20.4853 45.4748 20.7703 45.7577 21.1234 45.7577C21.4758 45.7577 21.7594 45.4748 21.7711 45.1149L21.7711 45.1177ZM56.1287 30.0491C55.0501 30.0491 54.0212 30.2673 53.0837 30.6603C52.4574 23.5655 46.5079 18 39.2507 18C37.4749 18 35.7438 18.3497 34.2152 18.9409C33.6212 19.1708 33.4629 19.4075 33.4574 19.8666V44.8512C33.4636 45.333 33.8373 45.7343 34.3075 45.7818C34.3275 45.7839 55.9876 45.7949 56.1281 45.7949C60.4753 45.7949 64 42.2701 64 37.9223C63.9999 33.5744 60.4759 30.0491 56.1287 30.0491ZM31.8482 19.8446C31.3753 19.8446 30.9872 20.2328 30.9803 20.7098L30.6251 38.4434L30.981 44.8795C30.9872 45.3496 31.3754 45.7371 31.8482 45.7371C32.3196 45.7371 32.7078 45.3496 32.7147 44.8726V44.8802L33.1008 38.4434L32.7147 20.7084C32.7078 20.2328 32.3196 19.8446 31.8482 19.8446Z" fill="#A5A5A5"/>
</svg>
