<svg width="32" height="32" viewBox="0 0 32 32" fill="none" xmlns="http://www.w3.org/2000/svg">
<path d="M16 28.75C13.3598 28.75 10.7601 28.4884 8.18135 28.1943L7.89808 30.6782C10.4862 30.9734 13.207 31.25 16 31.25V28.75ZM23.8186 28.1943C21.2399 28.4884 18.6402 28.75 16 28.75V31.25C18.793 31.25 21.5138 30.9734 24.1019 30.6782L23.8186 28.1943ZM30.7077 24.0548C30.9905 21.4781 31.25 18.7748 31.25 16H28.75C28.75 18.6296 28.504 21.2186 28.2226 23.782L30.7077 24.0548ZM31.25 16C31.25 13.2252 30.9905 10.5219 30.7077 7.94523L28.2226 8.21797C28.504 10.7814 28.75 13.3704 28.75 16H31.25ZM16 3.25C18.6402 3.25 21.2399 3.51159 23.8187 3.80568L24.1019 1.32178C21.5138 1.02663 18.793 0.75 16 0.75V3.25ZM8.18135 3.80568C10.7601 3.51159 13.3598 3.25 16 3.25V0.75C13.207 0.75 10.4862 1.02663 7.89808 1.32178L8.18135 3.80568ZM1.2923 7.94523C1.0095 10.5219 0.75 13.2252 0.75 16H3.25C3.25 13.3704 3.49603 10.7814 3.77737 8.21797L1.2923 7.94523ZM0.75 16C0.75 18.7748 1.00951 21.4781 1.2923 24.0548L3.77738 23.782C3.49603 21.2186 3.25 18.6296 3.25 16H0.75ZM30.7077 7.94523C30.3276 4.48156 27.5583 1.71595 24.1019 1.32178L23.8187 3.80568C26.1204 4.06817 27.9705 5.92076 28.2226 8.21797L30.7077 7.94523ZM24.1019 30.6782C27.5583 30.284 30.3276 27.5184 30.7077 24.0548L28.2226 23.782C27.9705 26.0792 26.1204 27.9318 23.8186 28.1943L24.1019 30.6782ZM7.89808 1.32178C4.44166 1.71595 1.67245 4.48156 1.2923 7.94523L3.77737 8.21797C4.0295 5.92076 5.87961 4.06817 8.18135 3.80568L7.89808 1.32178ZM8.18135 28.1943C5.87961 27.9318 4.0295 26.0792 3.77738 23.782L1.2923 24.0548C1.67245 27.5184 4.44166 30.284 7.89808 30.6782L8.18135 28.1943Z" fill="#4461F2"/>
<path d="M17.2656 10.3984C17.2656 9.70808 16.706 9.14844 16.0156 9.14844C15.3253 9.14844 14.7656 9.70808 14.7656 10.3984L17.2656 10.3984ZM14.7656 21.5984C14.7656 22.2888 15.3253 22.8484 16.0156 22.8484C16.706 22.8484 17.2656 22.2888 17.2656 21.5984L14.7656 21.5984ZM14.7656 10.3984L14.7656 21.5984L17.2656 21.5984L17.2656 10.3984L14.7656 10.3984Z" fill="#4461F2"/>
<path d="M21.6094 17.2461C22.2997 17.2461 22.8594 16.6864 22.8594 15.9961C22.8594 15.3057 22.2997 14.7461 21.6094 14.7461L21.6094 17.2461ZM10.4094 14.7461C9.71902 14.7461 9.15938 15.3057 9.15938 15.9961C9.15938 16.6864 9.71902 17.2461 10.4094 17.2461L10.4094 14.7461ZM21.6094 14.7461L10.4094 14.7461L10.4094 17.2461L21.6094 17.2461L21.6094 14.7461Z" fill="#4461F2"/>
</svg>
