<svg width="24" height="24" viewBox="0 0 24 24" fill="none" xmlns="http://www.w3.org/2000/svg">
<path d="M14.6702 7.31048C14.9798 7.03524 15.0076 6.56118 14.7324 6.25164C14.4571 5.94209 13.9831 5.91429 13.6735 6.18952L14.6702 7.31048ZM13.6735 17.8088C13.9831 18.0841 14.4571 18.0562 14.7324 17.7467C15.0076 17.4372 14.9798 16.9631 14.6702 16.6879L13.6735 17.8088ZM13.6735 6.18952C11.8817 7.78275 11.0044 8.9 9.93566 10.4744L11.1767 11.3169C12.1916 9.82188 12.9899 8.8046 14.6702 7.31048L13.6735 6.18952ZM14.6702 16.6879C12.9899 15.1937 12.1916 14.1765 11.1767 12.6814L9.93566 13.5239C11.0044 15.0983 11.8817 16.2156 13.6735 17.8088L14.6702 16.6879ZM9.93566 10.4744C9.3114 11.3941 9.3114 12.6043 9.93566 13.5239L11.1767 12.6814C10.8977 12.2704 10.8977 11.7279 11.1767 11.3169L9.93566 10.4744Z" fill="#4461F2"/>
</svg>
