<svg width="24" height="24" viewBox="0 0 24 24" fill="none" xmlns="http://www.w3.org/2000/svg">
<path d="M9.32195 16.6895C9.01241 16.9648 8.9846 17.4388 9.25984 17.7484C9.53508 18.0579 10.0091 18.0857 10.3187 17.8105L9.32195 16.6895ZM10.3187 6.19119C10.0091 5.91595 9.53508 5.94376 9.25984 6.2533C8.9846 6.56284 9.01241 7.0369 9.32195 7.31214L10.3187 6.19119ZM10.3187 17.8105C12.1105 16.2173 12.9878 15.1 14.0565 13.5256L12.8155 12.6831C11.8006 14.1781 11.0023 15.1954 9.32195 16.6895L10.3187 17.8105ZM9.32195 7.31214C11.0023 8.80626 11.8006 9.82354 12.8155 11.3186L14.0565 10.4761C12.9878 8.90167 12.1105 7.78441 10.3187 6.19119L9.32195 7.31214ZM14.0565 13.5256C14.6808 12.6059 14.6808 11.3957 14.0565 10.4761L12.8155 11.3186C13.0945 11.7296 13.0945 12.2721 12.8155 12.6831L14.0565 13.5256Z" fill="#4461F2"/>
</svg>
