<svg width="23" height="23" viewBox="0 0 23 23" fill="none" xmlns="http://www.w3.org/2000/svg">
<path d="M0.75 5.99999C0.75 2.68629 3.43629 0 6.75 0H12.9805C18.5033 0 22.9804 4.47715 22.9804 10V16.2304C22.9804 19.5442 20.2942 22.2304 16.9804 22.2304H7.74999C3.884 22.2304 0.75 19.0964 0.75 15.2304V5.99999Z" fill="white"/>
<path d="M7.10554 4.95305C6.71502 4.56253 6.08186 4.56253 5.69133 4.95305C5.30081 5.34357 5.30081 5.97674 5.69133 6.36726L7.10554 4.95305ZM17.005 17.681C17.3956 18.0715 18.0287 18.0715 18.4193 17.681C18.8098 17.2904 18.8098 16.6573 18.4193 16.2668L17.005 17.681ZM5.69133 6.36726L17.005 17.681L18.4193 16.2668L7.10554 4.95305L5.69133 6.36726Z" fill="#4461F2"/>
<path d="M18.4337 6.36726C18.8242 5.97674 18.8242 5.34357 18.4337 4.95305C18.0431 4.56253 17.41 4.56253 17.0195 4.95305L18.4337 6.36726ZM5.70575 16.2668C5.31522 16.6573 5.31522 17.2904 5.70575 17.681C6.09627 18.0715 6.72944 18.0715 7.11996 17.681L5.70575 16.2668ZM17.0195 4.95305L5.70575 16.2668L7.11996 17.681L18.4337 6.36726L17.0195 4.95305Z" fill="#4461F2"/>
</svg>