<svg width="24" height="23" viewBox="0 0 24 23" fill="none" xmlns="http://www.w3.org/2000/svg">
<path d="M6.73836 4.95305C6.34783 4.56253 5.71467 4.56253 5.32414 4.95305C4.93362 5.34357 4.93362 5.97674 5.32414 6.36726L6.73836 4.95305ZM16.6378 17.681C17.0284 18.0715 17.6615 18.0715 18.0521 17.681C18.4426 17.2904 18.4426 16.6573 18.0521 16.2668L16.6378 17.681ZM5.32414 6.36726L16.6378 17.681L18.0521 16.2668L6.73836 4.95305L5.32414 6.36726Z" fill="#A5A5A5"/>
<path d="M18.0665 6.36726C18.457 5.97674 18.457 5.34357 18.0665 4.95305C17.676 4.56253 17.0428 4.56253 16.6523 4.95305L18.0665 6.36726ZM5.33856 16.2668C4.94804 16.6573 4.94803 17.2904 5.33856 17.681C5.72908 18.0715 6.36225 18.0715 6.75277 17.681L5.33856 16.2668ZM16.6523 4.95305L5.33856 16.2668L6.75277 17.681L18.0665 6.36726L16.6523 4.95305Z" fill="#A5A5A5"/>
</svg>
