<svg width="18" height="18" viewBox="0 0 18 18" fill="none" xmlns="http://www.w3.org/2000/svg">
<path d="M1 4.83594H17" stroke="#A5A5A5" stroke-width="1.5" stroke-linecap="round"/>
<path d="M3.24918 4.83594V4.08594C2.85106 4.08594 2.52231 4.397 2.50032 4.79452L3.24918 4.83594ZM14.7508 4.83594L15.4996 4.79452C15.4776 4.397 15.1489 4.08594 14.7508 4.08594V4.83594ZM14.8331 6.32413L14.0842 6.36555L14.8331 6.32413ZM3.24918 5.58594H14.7508V4.08594H3.24918V5.58594ZM11.9453 16.2521H6.0547V17.7521H11.9453V16.2521ZM14.0019 4.87736L14.0842 6.36555L15.5819 6.28271L15.4996 4.79452L14.0019 4.87736ZM3.91572 6.36555L3.99803 4.87736L2.50032 4.79452L2.41801 6.28271L3.91572 6.36555ZM4.30847 14.7482C3.89244 11.9747 3.76084 9.16587 3.91572 6.36555L2.41801 6.28271C2.25748 9.18503 2.39388 12.0962 2.82507 14.9708L4.30847 14.7482ZM14.0842 6.36555C14.2391 9.16586 14.1075 11.9747 13.6915 14.7483L15.1749 14.9708C15.6061 12.0962 15.7425 9.18503 15.5819 6.28271L14.0842 6.36555ZM6.0547 16.2521C5.18065 16.2521 4.43813 15.6126 4.30847 14.7482L2.82507 14.9708C3.06486 16.5694 4.43816 17.7521 6.0547 17.7521V16.2521ZM11.9453 17.7521C13.5618 17.7521 14.9351 16.5694 15.1749 14.9708L13.6915 14.7483C13.5618 15.6126 12.8193 16.2521 11.9453 16.2521V17.7521Z" fill="#A5A5A5"/>
<path d="M5.79688 4.83387V4.19489C5.79688 3.34755 6.13348 2.53492 6.73264 1.93576C7.33179 1.3366 8.14443 1 8.99176 1C9.8391 1 10.6517 1.3366 11.2509 1.93576C11.85 2.53492 12.1867 3.34755 12.1867 4.19489V4.83387" stroke="#A5A5A5" stroke-width="1.5" stroke-linecap="round" stroke-linejoin="round"/>
<path d="M7.07812 8.25391V13.5504" stroke="#A5A5A5" stroke-width="1.5" stroke-linecap="round" stroke-linejoin="round"/>
<path d="M10.9062 8.25391V13.5504" stroke="#A5A5A5" stroke-width="1.5" stroke-linecap="round" stroke-linejoin="round"/>
</svg>
