<svg width="24" height="24" viewBox="0 0 24 24" fill="none" xmlns="http://www.w3.org/2000/svg">
<path d="M9.39055 7.44065C9.80434 7.42201 10.1247 7.07145 10.106 6.65766C10.0874 6.24386 9.73685 5.92353 9.32305 5.94217L9.39055 7.44065ZM17.2813 14.0933C17.3021 13.6796 16.9835 13.3275 16.5699 13.3067C16.1562 13.286 15.804 13.6045 15.7832 14.0182L17.2813 14.0933ZM6.13658 6.98883L6.05024 6.24382L6.13658 6.98883ZM10.2806 18.4811C8.91087 18.4811 7.5683 18.323 6.22288 18.167L6.0502 19.6571C7.37945 19.8111 8.80923 19.9811 10.2806 19.9811V18.4811ZM14.3384 18.167C12.9929 18.323 11.6504 18.4811 10.2806 18.4811V19.9811C11.752 19.9811 13.1818 19.8111 14.511 19.6571L14.3384 18.167ZM3.55848 8.74121C3.40964 10.0669 3.25 11.4877 3.25 12.9504H4.75C4.75 11.5848 4.89899 10.2457 5.04911 8.90857L3.55848 8.74121ZM3.25 12.9504C3.25 14.4131 3.40964 15.834 3.55848 17.1597L5.04912 16.9923C4.89899 15.6551 4.75 14.3161 4.75 12.9504H3.25ZM6.22292 7.73384C7.27408 7.61202 8.32295 7.48873 9.39055 7.44065L9.32305 5.94217C8.19331 5.99305 7.09076 6.12323 6.05024 6.24382L6.22292 7.73384ZM17.0028 17.1596C17.1127 16.1806 17.2284 15.1494 17.2813 14.0933L15.7832 14.0182C15.7329 15.0208 15.6228 16.0069 15.5121 16.9923L17.0028 17.1596ZM5.04911 8.90857C5.11775 8.29724 5.60864 7.80503 6.22292 7.73384L6.05024 6.24382C4.74554 6.39502 3.70538 7.43278 3.55848 8.74121L5.04911 8.90857ZM14.511 19.6571C15.8158 19.5059 16.8559 18.4681 17.0028 17.1596L15.5121 16.9923C15.4435 17.6036 14.9526 18.0959 14.3384 18.167L14.511 19.6571ZM6.22288 18.167C5.60862 18.0959 5.11775 17.6037 5.04912 16.9923L3.55848 17.1597C3.70538 18.4681 4.74548 19.5059 6.0502 19.6571L6.22288 18.167Z" fill="white"/>
<path d="M13.5018 12.8689L13.7978 13.582C13.9054 13.5482 14.0009 13.4891 14.0767 13.4094L13.5018 12.8689ZM10.5502 10.2535L9.95921 9.73068C9.88565 9.81415 9.83497 9.91575 9.81125 10.0273L10.5502 10.2535ZM10.7647 13.7294L10.4686 13.0163H10.4686L10.7647 13.7294ZM9.96546 13.0039L10.7044 13.2301L9.96546 13.0039ZM11.1413 10.7763L15.4099 5.93285L14.2278 4.88724L9.95921 9.73068L11.1413 10.7763ZM17.3358 7.68919L12.9269 12.3285L14.0767 13.4094L18.4856 8.77008L17.3358 7.68919ZM13.2057 12.1558L10.4686 13.0163L11.0607 14.4425L13.7978 13.582L13.2057 12.1558ZM10.7044 13.2301L11.2892 10.4797L9.81125 10.0273L9.22647 12.7777L10.7044 13.2301ZM10.4686 13.0163C10.5964 12.9761 10.7321 13.1 10.7044 13.2301L9.22647 12.7777C9.0106 13.7929 10.069 14.7543 11.0607 14.4425L10.4686 13.0163ZM18.4856 8.77008C19.4941 7.70898 19.3181 5.93423 18.0975 4.85457L17.1603 5.91807C17.7124 6.40644 17.792 7.20922 17.3358 7.68919L18.4856 8.77008ZM15.4099 5.93285C15.8374 5.44776 16.6211 5.44114 17.1603 5.91807L18.0975 4.85457C16.9054 3.8002 15.1729 3.81482 14.2278 4.88724L15.4099 5.93285Z" fill="white"/>
</svg>
