<svg width="18" height="16" viewBox="0 0 18 16" fill="none" xmlns="http://www.w3.org/2000/svg">
<path d="M1.4181 12.9903C1.53701 13.9481 2.30784 14.703 3.26791 14.8021C5.1108 14.9922 7.02942 15.2157 9 15.2157C10.9706 15.2157 12.8892 14.9922 14.7321 14.8021C15.6922 14.703 16.463 13.9481 16.5819 12.9903C16.7814 11.3836 17 9.71386 17 8.00044C17 6.28702 16.7814 4.6173 16.5819 3.01059C16.463 2.05279 15.6922 1.29789 14.7321 1.19882C12.8892 1.00865 10.9706 0.785156 9 0.785156C7.02942 0.785156 5.1108 1.00865 3.26791 1.19882C2.30784 1.29789 1.53701 2.05279 1.4181 3.01059C1.21864 4.6173 1 6.28702 1 8.00044C1 9.71386 1.21864 11.3836 1.4181 12.9903Z" stroke="#A5A5A5" stroke-width="1.5" stroke-linejoin="round"/>
<path d="M1.39844 3.14062L7.76387 8.15956C8.49012 8.73218 9.51426 8.73218 10.2405 8.15956L16.6059 3.14062" stroke="#A5A5A5" stroke-width="1.5" stroke-linejoin="round"/>
</svg>
