<svg width="24" height="25" viewBox="0 0 24 25" fill="none" xmlns="http://www.w3.org/2000/svg">
<path d="M12 7.33505L11.4186 7.80887C11.561 7.98363 11.7745 8.08505 12 8.08505C12.2254 8.08505 12.4389 7.98363 12.5814 7.80887L12 7.33505ZM4 9.59486L3.25 9.58377V9.59486H4ZM20 9.59486H20.7501L20.7499 9.58377L20 9.59486ZM4.74992 9.60594C4.77315 8.03427 5.6747 6.56921 6.88745 6.00408C7.47686 5.72943 8.15717 5.6556 8.89998 5.89139C9.6529 6.13038 10.5182 6.70406 11.4186 7.80887L12.5814 6.86123C11.5492 5.59475 10.4549 4.81119 9.35381 4.46169C8.24265 4.10898 7.17461 4.21541 6.25388 4.64445C4.44637 5.48673 3.28055 7.52286 3.25008 9.58377L4.74992 9.60594ZM12 18.6915C11.9565 18.6915 11.7969 18.6668 11.5005 18.5458C11.223 18.4326 10.8809 18.2582 10.495 18.023C9.72361 17.553 8.81714 16.8652 7.95334 16.0124C6.20484 14.2863 4.75 12.0063 4.75 9.59486H3.25C3.25 12.5913 5.03041 15.2347 6.89952 17.0799C7.84453 18.0128 8.84247 18.7727 9.7145 19.304C10.1502 19.5694 10.5646 19.784 10.9337 19.9347C11.2839 20.0776 11.6611 20.1915 12 20.1915V18.6915ZM20.7499 9.58377C20.7195 7.52286 19.5536 5.48673 17.7461 4.64445C16.8254 4.21541 15.7573 4.10898 14.6462 4.46169C13.5451 4.81119 12.4508 5.59475 11.4186 6.86123L12.5814 7.80887C13.4818 6.70406 14.3471 6.13038 15.1 5.89139C15.8428 5.6556 16.5231 5.72943 17.1125 6.00408C18.3253 6.56921 19.2268 8.03427 19.2501 9.60594L20.7499 9.58377ZM12 20.1915C12.3389 20.1915 12.7161 20.0776 13.0662 19.9347C13.4354 19.784 13.8498 19.5694 14.2855 19.304C15.1575 18.7727 16.1555 18.0128 17.1005 17.0799C18.9696 15.2347 20.75 12.5913 20.75 9.59486H19.25C19.25 12.0063 17.7952 14.2863 16.0466 16.0124C15.1828 16.8652 14.2764 17.553 13.505 18.023C13.119 18.2582 12.777 18.4326 12.4995 18.5458C12.2031 18.6668 12.0435 18.6915 12 18.6915V20.1915Z" fill="#A5A5A5"/>
</svg>
