<svg width="16" height="20" viewBox="0 0 16 20" fill="none" xmlns="http://www.w3.org/2000/svg">
<mask id="path-1-inside-1_986_4558" fill="white">
<path d="M0.319336 16.8595C0.522192 18.289 1.70138 19.408 3.14348 19.4796C4.69547 19.5565 6.25992 19.5969 8 19.5969C9.74008 19.5969 11.3045 19.5565 12.8565 19.4796C14.2986 19.408 15.4778 18.289 15.6807 16.8595C15.8495 15.6697 16 14.4458 16 13.1969C16 11.9479 15.8495 10.7241 15.6807 9.53426C15.4778 8.1047 14.2986 6.98572 12.8565 6.91419C11.3045 6.8372 9.74008 6.79688 8 6.79688C6.25992 6.79688 4.69547 6.8372 3.14348 6.91419C1.70138 6.98572 0.522192 8.1047 0.319336 9.53426C0.150496 10.7241 0 11.9479 0 13.1969C0 14.4458 0.150497 15.6697 0.319336 16.8595Z"/>
</mask>
<path d="M0.319336 16.8595L-1.16579 17.0702L0.319336 16.8595ZM8 18.0969C6.28423 18.0969 4.74457 18.0571 3.2178 17.9814L3.06917 20.9777C4.64638 21.056 6.23561 21.0969 8 21.0969V18.0969ZM12.7822 17.9814C11.2554 18.0571 9.71577 18.0969 8 18.0969V21.0969C9.76439 21.0969 11.3536 21.056 12.9308 20.9777L12.7822 17.9814ZM17.1658 17.0702C17.3361 15.87 17.5 14.5581 17.5 13.1969H14.5C14.5 14.3336 14.3629 15.4693 14.1955 16.6488L17.1658 17.0702ZM17.5 13.1969C17.5 11.8357 17.3361 10.5237 17.1658 9.32352L14.1955 9.745C14.3629 10.9244 14.5 12.0601 14.5 13.1969H17.5ZM8 8.29688C9.71577 8.29688 11.2554 8.33661 12.7822 8.41235L12.9308 5.41603C11.3536 5.33779 9.76439 5.29688 8 5.29688V8.29688ZM3.2178 8.41235C4.74457 8.33661 6.28423 8.29688 8 8.29688V5.29688C6.23561 5.29688 4.64638 5.33779 3.06917 5.41603L3.2178 8.41235ZM-1.16579 9.32352C-1.3361 10.5237 -1.5 11.8357 -1.5 13.1969H1.5C1.5 12.0601 1.63709 10.9244 1.80446 9.745L-1.16579 9.32352ZM-1.5 13.1969C-1.5 14.5581 -1.3361 15.87 -1.16579 17.0702L1.80446 16.6488C1.63709 15.4693 1.5 14.3336 1.5 13.1969H-1.5ZM17.1658 9.32352C16.8662 7.21212 15.1207 5.52466 12.9308 5.41603L12.7822 8.41235C13.4765 8.44679 14.0894 8.99728 14.1955 9.745L17.1658 9.32352ZM12.9308 20.9777C15.1207 20.8691 16.8662 19.1816 17.1658 17.0702L14.1955 16.6488C14.0894 17.3965 13.4765 17.947 12.7822 17.9814L12.9308 20.9777ZM3.06917 5.41603C0.879274 5.52466 -0.866177 7.21212 -1.16579 9.32352L1.80446 9.745C1.91056 8.99728 2.52348 8.44679 3.2178 8.41235L3.06917 5.41603ZM3.2178 17.9814C2.52349 17.947 1.91056 17.3965 1.80446 16.6488L-1.16579 17.0702C-0.866177 19.1816 0.879273 20.8691 3.06917 20.9777L3.2178 17.9814Z" fill="#A5A5A5" mask="url(#path-1-inside-1_986_4558)"/>
<mask id="path-3-inside-2_986_4558" fill="white">
<path d="M12.4834 6.79844V4.87844C12.4834 3.69027 12.0114 2.55076 11.1713 1.7106C10.3311 0.870436 9.19161 0.398438 8.00344 0.398438C6.81527 0.398438 5.67576 0.870436 4.8356 1.7106C3.99544 2.55076 3.52344 3.69027 3.52344 4.87844V6.79844"/>
</mask>
<path d="M10.9834 6.79844C10.9834 7.62686 11.655 8.29844 12.4834 8.29844C13.3119 8.29844 13.9834 7.62686 13.9834 6.79844H10.9834ZM12.4834 4.87844H10.9834H12.4834ZM8.00344 0.398438V-1.10156V0.398438ZM3.52344 4.87844H2.02344H3.52344ZM2.02344 6.79844C2.02344 7.62686 2.69501 8.29844 3.52344 8.29844C4.35186 8.29844 5.02344 7.62686 5.02344 6.79844H2.02344ZM13.9834 6.79844V4.87844H10.9834V6.79844H13.9834ZM13.9834 4.87844C13.9834 3.29244 13.3534 1.77141 12.2319 0.649939L10.1106 2.77126C10.6695 3.33012 10.9834 4.08809 10.9834 4.87844H13.9834ZM12.2319 0.649939C11.1105 -0.471529 9.58943 -1.10156 8.00344 -1.10156V1.89844C8.79378 1.89844 9.55176 2.2124 10.1106 2.77126L12.2319 0.649939ZM8.00344 -1.10156C6.41744 -1.10156 4.89641 -0.471529 3.77494 0.649939L5.89626 2.77126C6.45512 2.2124 7.21309 1.89844 8.00344 1.89844V-1.10156ZM3.77494 0.649939C2.65347 1.77141 2.02344 3.29244 2.02344 4.87844H5.02344C5.02344 4.08809 5.3374 3.33012 5.89626 2.77126L3.77494 0.649939ZM2.02344 4.87844V6.79844H5.02344V4.87844H2.02344Z" fill="#A5A5A5" mask="url(#path-3-inside-2_986_4558)"/>
<circle cx="7.99812" cy="13.1973" r="1.17" fill="#A5A5A5" stroke="#A5A5A5" stroke-width="1.5"/>
</svg>
