<svg width="18" height="18" viewBox="0 0 18 18" fill="none" xmlns="http://www.w3.org/2000/svg">
<path d="M15.5394 8.91807C15.5394 9.33228 15.8752 9.66807 16.2894 9.66807C16.7036 9.66807 17.0394 9.33228 17.0394 8.91807H15.5394ZM5.01562 6.31583C5.01562 6.73005 5.35141 7.06583 5.76562 7.06583C6.17984 7.06583 6.51562 6.73005 6.51562 6.31583H5.01562ZM6.99021 4.33594H15.0648V2.83594H6.99021V4.33594ZM15.5394 4.81052V8.91807H17.0394V4.81052H15.5394ZM6.51562 6.31583V4.81052H5.01562V6.31583H6.51562ZM15.0648 4.33594C15.3269 4.33594 15.5394 4.54841 15.5394 4.81052H17.0394C17.0394 3.71999 16.1553 2.83594 15.0648 2.83594V4.33594ZM6.99021 2.83594C5.89968 2.83594 5.01562 3.71999 5.01562 4.81052H6.51562C6.51562 4.54841 6.7281 4.33594 6.99021 4.33594V2.83594Z" fill="#A5A5A5"/>
<path d="M9.27344 1L11.0274 3.58938L12.7814 1" stroke="#A5A5A5" stroke-width="1.5" stroke-linecap="round" stroke-linejoin="round"/>
<path d="M1 8.47236L0.953683 7.7238C0.558212 7.74826 0.25 8.07614 0.25 8.47236L1 8.47236ZM7.25443 12.7502C7.2934 13.1626 7.65929 13.4653 8.07166 13.4263C8.48404 13.3873 8.78674 13.0215 8.74777 12.6091L7.25443 12.7502ZM5.04095 11.3832C4.63332 11.3096 4.24323 11.5804 4.16965 11.9881C4.09607 12.3957 4.36687 12.7858 4.7745 12.8594L5.04095 11.3832ZM9.08798 12.8758L8.95476 13.6139C9.05638 13.6322 9.1607 13.6294 9.26118 13.6056L9.08798 12.8758ZM1 13.7389H0.25C0.25 14.0305 0.41898 14.2957 0.683273 14.4188L1 13.7389ZM2.15191 8.40109L2.19822 9.14966L2.15191 8.40109ZM4.59981 8.62809L4.41664 9.35537L4.59981 8.62809ZM11.1904 15.7048L10.9081 15.01L11.1904 15.7048ZM4.8806 15.5469L4.56387 16.2267L4.8806 15.5469ZM15.1489 14.0965L14.8666 13.4017L15.1489 14.0965ZM7.07804 10.8837L7.25443 12.7502L8.74777 12.6091L8.57139 10.7426L7.07804 10.8837ZM4.7745 12.8594L8.95476 13.6139L9.22121 12.1378L5.04095 11.3832L4.7745 12.8594ZM9.26118 13.6056L14.5318 12.3546L14.1854 10.8952L8.91479 12.1461L9.26118 13.6056ZM14.8666 13.4017L10.9081 15.01L11.4727 16.3997L15.4312 14.7913L14.8666 13.4017ZM1.04632 9.22093L2.19822 9.14966L2.10559 7.65252L0.953683 7.7238L1.04632 9.22093ZM4.41664 9.35537L6.13887 9.78914L6.50522 8.33456L4.78298 7.9008L4.41664 9.35537ZM5.19733 14.867L1.31673 13.0591L0.683273 14.4188L4.56387 16.2267L5.19733 14.867ZM0.25 8.47236L0.25 13.7389H1.75L1.75 8.47236L0.25 8.47236ZM2.19822 9.14966C2.94388 9.10352 3.69218 9.17291 4.41664 9.35537L4.78298 7.9008C3.90864 7.68059 3.00552 7.59684 2.10559 7.65252L2.19822 9.14966ZM10.9081 15.01C9.06735 15.7579 6.99837 15.7061 5.19733 14.867L4.56387 16.2267C6.74276 17.2418 9.2458 17.3045 11.4727 16.3997L10.9081 15.01ZM14.5318 12.3546C14.8126 12.288 15.0973 12.4492 15.1845 12.7244L16.6144 12.271C16.2897 11.2472 15.2304 10.6472 14.1854 10.8952L14.5318 12.3546ZM15.1845 12.7244C15.2714 12.9985 15.133 13.2934 14.8666 13.4017L15.4312 14.7913C16.4227 14.3885 16.9378 13.2911 16.6144 12.271L15.1845 12.7244ZM8.57139 10.7426C8.46185 9.58344 7.63424 8.61892 6.50522 8.33456L6.13887 9.78914C6.65207 9.91839 7.02825 10.3568 7.07804 10.8837L8.57139 10.7426Z" fill="#A5A5A5"/>
<path d="M11.7734 3.58594C11.7734 3.17172 11.4377 2.83594 11.0234 2.83594C10.6092 2.83594 10.2734 3.17172 10.2734 3.58594L11.7734 3.58594ZM10.2734 9.79823C10.2734 10.2124 10.6092 10.5482 11.0234 10.5482C11.4377 10.5482 11.7734 10.2124 11.7734 9.79823L10.2734 9.79823ZM10.2734 3.58594L10.2734 9.79823L11.7734 9.79823L11.7734 3.58594L10.2734 3.58594Z" fill="#A5A5A5"/>
</svg>
