<svg width="24" height="24" viewBox="0 0 24 24" fill="none" xmlns="http://www.w3.org/2000/svg">
<path d="M7.52344 5.29297V7.01352" stroke="#A5A5A5" stroke-width="1.5" stroke-linecap="round" stroke-linejoin="round"/>
<path d="M12 4V7.01096" stroke="#A5A5A5" stroke-width="1.5" stroke-linecap="round" stroke-linejoin="round"/>
<path d="M16.4766 5.29297V7.01352" stroke="#A5A5A5" stroke-width="1.5" stroke-linecap="round" stroke-linejoin="round"/>
<path d="M4.45497 19.078C4.56297 19.5667 4.98284 19.9381 5.48333 19.9381H18.5167C19.0172 19.9381 19.4362 19.5666 19.548 19.0787C19.7557 18.1718 20 17.5453 20 14.9866C20 12.4279 19.7557 11.8015 19.548 10.8945C19.4362 10.4067 19.0172 10.0352 18.5167 10.0352L5.48333 10.0352C4.98284 10.0352 4.56297 10.4065 4.45497 10.8952C4.24663 11.838 4 12.5157 4 14.9866C4 17.4575 4.24663 18.1353 4.45497 19.078Z" stroke="#A5A5A5" stroke-width="1.5" stroke-linecap="round" stroke-linejoin="round"/>
<circle cx="12.0059" cy="14.9864" r="1.92" stroke="#A5A5A5" stroke-width="1.5" stroke-linecap="round" stroke-linejoin="round"/>
<path d="M6.64844 13.3242L7.4599 13.3153" stroke="#A5A5A5" stroke-width="1.5" stroke-linecap="round" stroke-linejoin="round"/>
<path d="M16.6875 17.332L17.499 17.3231" stroke="#A5A5A5" stroke-width="1.5" stroke-linecap="round" stroke-linejoin="round"/>
</svg>
