<svg width="18" height="18" viewBox="0 0 18 18" fill="none" xmlns="http://www.w3.org/2000/svg">
<path d="M16.655 13.88L15.9097 13.7968L16.655 13.88ZM4.09628 16.6371L4.01017 17.3821L4.09628 16.6371ZM9 16.25C7.37138 16.25 5.7715 16.0757 4.18239 15.892L4.01017 17.3821C5.59541 17.5653 7.27443 17.75 9 17.75V16.25ZM13.8176 15.892C12.2285 16.0757 10.6286 16.25 9 16.25V17.75C10.7256 17.75 12.4046 17.5653 13.9898 17.3821L13.8176 15.892ZM17.4004 13.9631C17.5766 12.3838 17.75 10.715 17.75 9H16.25C16.25 10.6227 16.0859 12.217 15.9097 13.7968L17.4004 13.9631ZM17.75 9C17.75 7.28496 17.5766 5.61621 17.4004 4.03688L15.9097 4.2032C16.0859 5.78304 16.25 7.37727 16.25 9H17.75ZM9 1.75C10.6286 1.75 12.2285 1.9243 13.8176 2.10796L13.9898 0.617881C12.4046 0.434665 10.7256 0.25 9 0.25V1.75ZM4.18239 2.10796C5.7715 1.9243 7.37138 1.75 9 1.75V0.25C7.27443 0.25 5.59541 0.434665 4.01017 0.617881L4.18239 2.10796ZM0.59958 4.03688C0.423378 5.61621 0.25 7.28496 0.25 9H1.75C1.75 7.37727 1.91407 5.78303 2.09033 4.2032L0.59958 4.03688ZM0.25 9C0.25 10.715 0.423378 12.3838 0.599581 13.9631L2.09033 13.7968C1.91407 12.217 1.75 10.6227 1.75 9H0.25ZM17.4004 4.03688C17.2008 2.24802 15.7746 0.824154 13.9898 0.617881L13.8176 2.10796C14.9115 2.23438 15.7879 3.11219 15.9097 4.2032L17.4004 4.03688ZM13.9898 17.3821C15.7746 17.1758 17.2008 15.752 17.4004 13.9631L15.9097 13.7968C15.7879 14.8878 14.9115 15.7656 13.8176 15.892L13.9898 17.3821ZM4.01017 0.617881C2.22544 0.824154 0.799159 2.24802 0.59958 4.03688L2.09033 4.2032C2.21205 3.11219 3.08855 2.23438 4.18239 2.10796L4.01017 0.617881ZM4.18239 15.892C3.08855 15.7656 2.21205 14.8878 2.09033 13.7968L0.599581 13.9631C0.79916 15.752 2.22544 17.1758 4.01017 17.3821L4.18239 15.892Z" fill="white"/>
<path d="M9.75781 5.80078C9.75781 5.38657 9.42203 5.05078 9.00781 5.05078C8.5936 5.05078 8.25781 5.38657 8.25781 5.80078L9.75781 5.80078ZM8.25781 12.2008C8.25781 12.615 8.5936 12.9508 9.00781 12.9508C9.42203 12.9508 9.75781 12.615 9.75781 12.2008L8.25781 12.2008ZM8.25781 5.80078L8.25781 12.2008L9.75781 12.2008L9.75781 5.80078L8.25781 5.80078Z" fill="white"/>
<path d="M12.2031 9.75C12.6173 9.75 12.9531 9.41421 12.9531 9C12.9531 8.58579 12.6173 8.25 12.2031 8.25L12.2031 9.75ZM5.80312 8.25C5.38891 8.25 5.05312 8.58579 5.05312 9C5.05312 9.41421 5.38891 9.75 5.80312 9.75L5.80312 8.25ZM12.2031 8.25L5.80312 8.25L5.80312 9.75L12.2031 9.75L12.2031 8.25Z" fill="white"/>
</svg>
