<svg width="18" height="18" viewBox="0 0 18 18" fill="none" xmlns="http://www.w3.org/2000/svg">
<path d="M1.98786 15.1404C1.36305 12.6644 1.10553 9.68929 1.02765 7.99776C1.00225 7.44606 1.44772 7 2 7H16C16.5523 7 16.9977 7.44606 16.9723 7.99776C16.8945 9.68929 16.637 12.6644 16.0121 15.1404C15.8175 15.9118 15.2494 16.501 14.4649 16.6338C13.3582 16.8213 11.5365 17 9 17C6.34963 17 4.59103 16.8285 3.53246 16.6453C2.74847 16.5096 2.18254 15.9119 1.98786 15.1404Z" stroke="white" stroke-width="1.5" stroke-linecap="round" stroke-linejoin="round"/>
<path d="M4.33594 7V5.66667C4.33594 3.08934 6.42528 1 9.0026 1V1C11.5799 1 13.6693 3.08934 13.6693 5.66667V7" stroke="white" stroke-width="1.5" stroke-linecap="round" stroke-linejoin="round"/>
<path d="M6.33594 11V13M11.6693 11V13" stroke="white" stroke-width="1.5" stroke-linecap="round" stroke-linejoin="round"/>
</svg>
