<svg width="56" height="56" viewBox="0 0 56 56" fill="none" xmlns="http://www.w3.org/2000/svg">
<path fill-rule="evenodd" clip-rule="evenodd" d="M17.7855 52.6726C38.5554 52.6726 49.9157 34.7479 49.9157 19.2037C49.9157 18.6946 49.9157 18.1878 49.8827 17.6832C52.0927 16.0181 54.0004 13.9563 55.5166 11.5945C53.4556 12.5457 51.2693 13.1696 49.0306 13.4452C51.388 11.9751 53.1523 9.66295 53.9953 6.93899C51.7786 8.30916 49.3535 9.27478 46.8246 9.79419C43.3243 5.91707 37.7622 4.96813 33.2574 7.47947C28.7526 9.99083 26.4252 15.3379 27.5805 20.5224C18.5008 20.0483 10.0414 15.581 4.30735 8.23243C1.31014 13.6072 2.84105 20.4831 7.80349 23.9349C6.00641 23.8794 4.24852 23.3744 2.67816 22.4626V22.6116C2.67963 28.211 6.46877 33.0338 11.7377 34.1425C10.0753 34.6148 8.33095 34.6838 6.63884 34.3443C8.1182 39.1361 12.3577 42.4186 17.1889 42.5132C13.1902 45.7867 8.25054 47.5638 3.16472 47.5585C2.26605 47.5567 1.36832 47.5 0.476562 47.3888C5.64072 50.8409 11.6495 52.672 17.7855 52.6635" fill="#1DA1F2"/>
</svg>
