<svg width="24" height="25" viewBox="0 0 24 25" fill="none" xmlns="http://www.w3.org/2000/svg">
<path d="M19.25 12.08C19.25 12.1047 19.2356 12.2196 19.1442 12.441C19.0585 12.6485 18.9243 12.904 18.7395 13.193C18.3702 13.7705 17.8254 14.4405 17.145 15.0759C15.7701 16.3598 13.9448 17.41 12 17.41V18.91C14.4735 18.91 16.6481 17.5923 18.1688 16.1722C18.9361 15.4556 19.5628 14.6897 20.0032 14.0011C20.2232 13.6571 20.4033 13.3221 20.5307 13.0134C20.6525 12.7184 20.75 12.3913 20.75 12.08H19.25ZM12 17.41C10.0552 17.41 8.22986 16.3598 6.85504 15.0759C6.17465 14.4405 5.62983 13.7705 5.26052 13.193C5.07572 12.904 4.94146 12.6485 4.85578 12.441C4.7644 12.2196 4.75 12.1047 4.75 12.08H3.25C3.25 12.3913 3.34753 12.7184 3.46929 13.0134C3.59674 13.3221 3.77682 13.6571 3.99684 14.0011C4.43718 14.6897 5.06393 15.4556 5.83125 16.1722C7.35186 17.5923 9.52652 18.91 12 18.91V17.41ZM4.75 12.08C4.75 12.0553 4.7644 11.9404 4.85578 11.719C4.94146 11.5115 5.07572 11.256 5.26052 10.967C5.62983 10.3895 6.17465 9.7195 6.85504 9.0841C8.22986 7.80019 10.0552 6.75 12 6.75V5.25C9.52652 5.25 7.35186 6.56775 5.83125 7.98781C5.06393 8.70439 4.43718 9.47033 3.99684 10.1589C3.77682 10.5029 3.59674 10.8379 3.46929 11.1466C3.34753 11.4416 3.25 11.7687 3.25 12.08H4.75ZM12 6.75C13.9448 6.75 15.7701 7.80019 17.145 9.0841C17.8254 9.7195 18.3702 10.3895 18.7395 10.967C18.9243 11.256 19.0585 11.5115 19.1442 11.719C19.2356 11.9404 19.25 12.0553 19.25 12.08H20.75C20.75 11.7687 20.6525 11.4416 20.5307 11.1466C20.4033 10.8379 20.2232 10.5029 20.0032 10.1589C19.5628 9.47033 18.9361 8.70439 18.1688 7.98781C16.6481 6.56775 14.4735 5.25 12 5.25V6.75Z" fill="#A5A5A5"/>
<path d="M11.9975 14.6395C13.4113 14.6395 14.5575 13.4934 14.5575 12.0795C14.5575 10.6657 13.4113 9.51953 11.9975 9.51953C10.5837 9.51953 9.4375 10.6657 9.4375 12.0795C9.4375 13.4934 10.5837 14.6395 11.9975 14.6395Z" stroke="#A5A5A5" stroke-width="1.5" stroke-linecap="round" stroke-linejoin="round"/>
</svg>
